<?xml version="1.0" standalone="no"?>
<!DOCTYPE svg PUBLIC "-//W3C//DTD SVG 20010904//EN"
 "http://www.w3.org/TR/2001/REC-SVG-20010904/DTD/svg10.dtd">
<svg version="1.0" xmlns="http://www.w3.org/2000/svg"
 width="256.000000pt" height="256.000000pt" viewBox="0 0 256.000000 256.000000"
 preserveAspectRatio="xMidYMid meet">
<metadata>
Created by potrace 1.11, written by Peter Selinger 2001-2013
</metadata>
<g transform="translate(0.000000,256.000000) scale(0.100000,-0.100000)"
fill="#000000" stroke="none">
<path d="M543 2076 l-28 -24 0 -792 0 -792 28 -24 28 -24 705 0 704 0 0 80 0
80 -650 0 -650 0 0 680 0 680 560 0 560 0 0 -490 0 -490 -380 0 -380 0 0 300
0 300 205 0 206 0 -3 -107 -3 -108 -92 -3 -93 -3 0 -79 0 -80 150 0 c147 0
152 1 175 25 l25 24 0 224 0 224 -26 24 -26 24 -320 0 -320 0 -24 -28 -24 -28
0 -400 c0 -420 3 -446 45 -463 22 -8 988 -8 1010 0 44 17 45 30 45 644 0 597
-1 608 -39 637 -12 9 -176 12 -688 13 l-672 0 -28 -24z"/>
</g>
</svg>
