<?xml version="1.0" standalone="no"?>
<!DOCTYPE svg PUBLIC "-//W3C//DTD SVG 20010904//EN"
 "http://www.w3.org/TR/2001/REC-SVG-20010904/DTD/svg10.dtd">
<svg version="1.0" xmlns="http://www.w3.org/2000/svg"
 width="260.000000pt" height="260.000000pt" viewBox="0 0 260.000000 260.000000"
 preserveAspectRatio="xMidYMid meet">
<metadata>
Created by potrace 1.11, written by Peter Selinger 2001-2013
</metadata>
<g transform="translate(0.000000,260.000000) scale(0.100000,-0.100000)"
fill="#000000" stroke="none">
<path d="M278 2454 c-61 -33 -58 29 -58 -1154 0 -947 2 -1085 15 -1110 33 -63
-22 -60 1055 -60 l980 0 0 115 0 115 -910 0 -910 0 0 940 0 940 780 0 780 0 0
-675 0 -675 -530 0 -530 0 0 415 0 415 285 0 286 0 -3 -152 -3 -153 -30 -2
c-16 0 -74 -2 -127 -2 l-98 -1 0 -110 0 -110 209 0 c195 0 210 1 234 20 15 12
31 38 37 58 6 21 10 155 10 315 0 310 -2 322 -66 352 -46 22 -847 22 -899 1
-67 -28 -65 -13 -65 -642 l0 -566 34 -34 34 -34 692 0 692 0 34 34 34 34 0
836 0 836 -29 32 -29 33 -939 2 c-816 2 -942 0 -965 -13z"/>
</g>
</svg>
