<svg width="65" height="51" viewBox="0 0 65 51" fill="none" xmlns="http://www.w3.org/2000/svg">
<path fill-rule="evenodd" clip-rule="evenodd" d="M23.1255 0.250201C23.2908 0.198461 23.432 0.154297 23.61 0.154297C24.3083 0.154297 24.953 0.669091 25.2216 1.50563L39.296 47.8372C39.6183 48.8668 39.1349 50.0251 38.2753 50.4112L38.1679 50.4755C38.131 50.4865 38.0957 50.4976 38.0615 50.5083C37.8961 50.56 37.755 50.6042 37.577 50.6042C36.8787 50.6042 36.234 50.0894 35.9654 49.2529L21.891 2.92132C21.5687 1.89173 22.0521 0.733438 22.9116 0.347342L23.0191 0.282994C23.0559 0.271955 23.0912 0.260916 23.1255 0.250201ZM30.27 0.457996C30.4353 0.406255 30.5765 0.362091 30.7545 0.362091C31.4528 0.362091 32.1512 0.876885 32.4198 1.71343L45.6347 45.2136C45.957 46.2431 45.5273 47.4658 44.614 47.8519L44.5592 47.8686L44.5076 47.8847C44.3423 47.9364 44.2011 47.9806 44.0231 47.9806C43.2711 47.9806 42.6264 47.4658 42.3578 46.6292L29.1429 3.12911C28.8206 2.09952 29.2503 0.876884 30.1636 0.490788C30.2002 0.479803 30.2354 0.468819 30.2694 0.458155L30.2699 0.458016L30.27 0.457996ZM38.2195 2.66781C38.3848 2.61607 38.5259 2.57191 38.7039 2.57191C39.4023 2.57191 40.0469 3.08671 40.3693 3.92325L51.9726 42.1467C52.2949 43.1763 51.8652 44.399 50.952 44.785C50.9151 44.7961 50.8798 44.8071 50.8456 44.8178C50.6802 44.8696 50.5391 44.9137 50.3611 44.9137C49.609 44.9137 48.9643 44.399 48.6957 43.5624L37.0924 5.33893C36.7701 4.30934 37.1998 3.08671 38.113 2.70061C38.1499 2.68957 38.1852 2.67853 38.2195 2.66781ZM45.9562 4.4917C46.1216 4.43996 46.2627 4.3958 46.4407 4.3958C47.1928 4.3958 47.8374 4.91059 48.106 5.81148L58.4201 39.7236C58.7424 40.7532 58.3126 41.9759 57.3994 42.3619C57.376 42.369 57.3532 42.376 57.3309 42.3829L57.293 42.3947C57.1277 42.4465 56.9865 42.4906 56.8085 42.4906C56.0564 42.4906 55.4118 41.9758 55.1432 41.1393L44.8292 7.16282C44.5068 6.13323 44.9366 4.91059 45.8498 4.52449C45.8867 4.51346 45.9219 4.50243 45.9561 4.49172L45.9562 4.4917ZM54.5515 8.61185C54.7169 8.56011 54.8581 8.51595 55.0361 8.51595C55.7344 8.51595 56.4328 9.03074 56.7014 9.86728L61.3737 25.2401V12.9818C61.3737 11.8879 62.1258 10.987 63.039 10.987H63.2001C64.1133 10.987 64.8654 11.8879 64.8654 12.9818V36.7267C64.8654 36.7862 64.8632 36.8452 64.8588 36.9034C64.9255 37.7918 64.5002 38.6956 63.7386 39.0176C63.7017 39.0286 63.6664 39.0397 63.6321 39.0504C63.4668 39.1021 63.3257 39.1463 63.1477 39.1463C62.3956 39.1463 61.751 38.6315 61.4824 37.7949L53.4245 11.283C53.1022 10.2534 53.5319 9.03074 54.4452 8.64464C54.482 8.6336 54.5173 8.62256 54.5515 8.61185ZM17.4846 4.21448C17.65 4.16274 17.7911 4.11858 17.9692 4.11858C18.6675 4.11858 19.3121 4.63337 19.5807 5.46991L31.5601 44.9804C31.8825 46.01 31.399 47.1683 30.5395 47.5544L30.432 47.6187L30.3926 47.6307L30.3256 47.6515C30.1603 47.7033 30.0191 47.7474 29.8411 47.7474C29.1428 47.7474 28.4981 47.2326 28.2295 46.3961L16.2501 6.88559C15.9278 5.856 16.4113 4.69772 17.2708 4.31162L17.3782 4.24727C17.4151 4.23624 17.4504 4.2252 17.4846 4.21449L17.4846 4.21448ZM11.9522 8.49172C12.1134 8.42737 12.3283 8.36302 12.4894 8.36302C13.1341 8.36302 13.725 8.81347 13.9399 9.58566L24.0391 42.79C24.3614 43.7552 23.9316 44.8491 23.1258 45.1709L22.8035 45.2996C22.6424 45.3639 22.4275 45.4283 22.2663 45.4283C21.6217 45.4283 21.0308 44.9778 20.8159 44.2057L10.7167 11.0014C10.3944 10.0361 10.8241 8.94217 11.6299 8.62042L11.9522 8.49172ZM6.57927 12.7857C6.74042 12.7213 6.90156 12.657 7.06271 12.657C7.65362 12.657 8.19081 13.1074 8.40569 13.7509L16.5173 40.3915C16.7859 41.2924 16.4099 42.2577 15.6578 42.5794L15.0132 42.8368C14.852 42.9012 14.6908 42.9655 14.5297 42.9655C13.9388 42.9655 13.4016 42.5794 13.1867 41.8716L5.07509 15.2309C4.8065 14.33 5.18254 13.3648 5.93461 13.0431L6.57924 12.7857L6.57927 12.7857ZM2.06681 16.9614C1.90402 16.8789 1.72274 16.8329 1.53098 16.8329H1.42354C0.725187 16.8329 0.134277 17.5408 0.134277 18.3773V36.9099C0.134277 37.7465 0.725187 38.4543 1.42354 38.4543H1.53098C2.22934 38.4543 2.82025 37.7465 2.82025 36.9099V27.368L6.79579 40.4447C6.95695 40.9595 7.3867 41.3456 7.87018 41.3456C7.97761 41.3456 8.13878 41.3456 8.24622 41.2812L8.67597 41.0882C9.26688 40.8308 9.53548 40.0586 9.3206 39.3507L2.76684 17.7937C2.64904 17.3703 2.38772 17.0845 2.06681 16.9614Z" fill="white"/>
</svg>
