<svg width="65" height="44" viewBox="0 0 65 44" fill="none" xmlns="http://www.w3.org/2000/svg">
<path fill-rule="evenodd" clip-rule="evenodd" d="M23.1255 0.551814C23.2908 0.507528 23.432 0.469727 23.61 0.469727C24.3083 0.469727 24.953 0.910354 25.2216 1.62637L39.296 41.2829C39.6183 42.1641 39.1349 43.1555 38.2753 43.486L38.1679 43.5411L38.1376 43.5489C38.1116 43.5558 38.0863 43.5625 38.0615 43.5692C37.8961 43.6134 37.755 43.6512 37.577 43.6512C36.8787 43.6512 36.234 43.2106 35.9654 42.4946L21.891 2.8381C21.5687 1.95684 22.0521 0.96543 22.9116 0.634959L23.0191 0.579882C23.0559 0.570438 23.0912 0.560994 23.1254 0.551828L23.1254 0.551821L23.1255 0.551814ZM30.27 0.729671C30.4353 0.685384 30.5765 0.647583 30.7545 0.647583C31.4528 0.647583 32.1512 1.08821 32.4198 1.80423L45.6347 39.0372C45.957 39.9185 45.5273 40.965 44.614 41.2954L44.5569 41.3103L44.5076 41.3235C44.3423 41.3678 44.2011 41.4056 44.0231 41.4056C43.2711 41.4056 42.6264 40.965 42.3578 40.2489L29.1429 3.01595C28.8206 2.1347 29.2503 1.08821 30.1636 0.757738C30.2004 0.748292 30.2357 0.738846 30.2699 0.729678L30.27 0.729671ZM38.2195 2.62105C38.3848 2.57677 38.5259 2.53897 38.7039 2.53897C39.4023 2.53897 40.0469 2.9796 40.3693 3.69562L51.9726 36.4123C52.2949 37.2935 51.8652 38.34 50.952 38.6705C50.9151 38.6799 50.8798 38.6894 50.8456 38.6986C50.6802 38.7428 50.5391 38.7806 50.3611 38.7806C49.609 38.7806 48.9643 38.34 48.6957 37.624L37.0924 4.90735C36.7701 4.02609 37.1998 2.9796 38.113 2.64913C38.1499 2.63968 38.1852 2.63022 38.2195 2.62105ZM45.9562 4.18225C46.1216 4.13796 46.2627 4.10016 46.4407 4.10016C47.1928 4.10016 47.8374 4.54078 48.106 5.31188L58.4201 34.3382C58.7424 35.2195 58.3126 36.266 57.3994 36.5965C57.3626 36.6059 57.3274 36.6153 57.2932 36.6245L57.293 36.6245C57.1277 36.6688 56.9865 36.7066 56.8085 36.7066C56.0564 36.7066 55.4118 36.266 55.1432 35.55L44.8292 6.46853C44.5068 5.58727 44.9366 4.54078 45.8498 4.21031C45.8867 4.20087 45.922 4.19142 45.9562 4.18225ZM54.5515 7.7088C54.7169 7.66451 54.8581 7.62671 55.0361 7.62671C55.7344 7.62671 56.4328 8.06734 56.7014 8.78336L61.3737 21.9414V11.4491C61.3737 10.5128 62.1258 9.7417 63.039 9.7417H63.2001C64.1133 9.7417 64.8654 10.5128 64.8654 11.4491V31.7731C64.8654 31.824 64.8632 31.8744 64.8588 31.9243C64.9255 32.6848 64.5002 33.4583 63.7386 33.7339L63.6847 33.748L63.6322 33.762C63.4668 33.8063 63.3257 33.8441 63.1477 33.8441C62.3956 33.8441 61.751 33.4035 61.4824 32.6874L53.4245 9.99509C53.1022 9.11383 53.5319 8.06734 54.4452 7.73686C54.482 7.72742 54.5173 7.71798 54.5515 7.70881L54.5515 7.7088ZM17.4846 3.94497C17.65 3.90069 17.7911 3.86288 17.9692 3.86288C18.6675 3.86288 19.3121 4.30351 19.5807 5.01953L31.5601 38.8377C31.8825 39.719 31.399 40.7104 30.5395 41.0408L30.432 41.0959C30.3952 41.1054 30.36 41.1148 30.3258 41.124L30.3256 41.124C30.1603 41.1683 30.0191 41.2061 29.8411 41.2061C29.1428 41.2061 28.4981 40.7655 28.2295 40.0494L16.2501 6.23126C15.9278 5.35 16.4113 4.35859 17.2708 4.02812L17.3782 3.97304C17.4151 3.9636 17.4503 3.95416 17.4845 3.945L17.4846 3.94499L17.4846 3.94498L17.4846 3.94497ZM11.9522 7.60598C12.1134 7.5509 12.3283 7.49582 12.4894 7.49582C13.1341 7.49582 13.725 7.88137 13.9399 8.54231L24.0391 36.9628C24.3614 37.789 23.9316 38.7253 23.1258 39.0007L22.8035 39.1109C22.6424 39.166 22.4275 39.221 22.2663 39.221C21.6217 39.221 21.0308 38.8355 20.8159 38.1745L10.7167 9.75404C10.3944 8.92786 10.8241 7.99153 11.6299 7.71613L11.9522 7.60598ZM6.57927 11.2813C6.74041 11.2262 6.90156 11.1711 7.06271 11.1711C7.65362 11.1711 8.19081 11.5567 8.40569 12.1075L16.5173 34.9099C16.7859 35.681 16.4099 36.5072 15.6578 36.7826L15.0132 37.0029C14.852 37.058 14.6908 37.113 14.5297 37.113C13.9388 37.113 13.4016 36.7826 13.1867 36.1767L5.07509 13.3743C4.8065 12.6032 5.18254 11.777 5.93461 11.5016L6.57924 11.2813L6.57927 11.2813ZM2.06145 14.8531C1.90004 14.784 1.72064 14.7455 1.53098 14.7455H1.42354C0.725187 14.7455 0.134277 15.3513 0.134277 16.0674V31.9299C0.134277 32.6459 0.725187 33.2518 1.42354 33.2518H1.53098C2.22934 33.2518 2.82025 32.6459 2.82025 31.9299V23.7622L6.79579 34.9549C6.95695 35.3955 7.3867 35.726 7.87018 35.726C7.97761 35.726 8.13878 35.726 8.24622 35.6709L8.67597 35.5057C9.26688 35.2854 9.53548 34.6244 9.3206 34.0186L2.76684 15.5672C2.64838 15.2029 2.38481 14.9575 2.06145 14.8531Z" fill="black"/>
</svg>
