<svg width="3144" height="1297" viewBox="0 0 3144 1297" fill="none" xmlns="http://www.w3.org/2000/svg">
<path d="M339.977 1023.23C304.31 1023.23 276.31 1013.23 255.977 993.232C235.977 972.898 225.31 944.565 223.977 908.232L223.477 888.232L223.977 868.232C225.31 831.898 235.977 803.732 255.977 783.732C276.31 763.398 304.31 753.232 339.977 753.232C363.977 753.232 384.31 757.565 400.977 766.232C417.643 774.898 429.977 785.565 437.977 798.232C446.31 810.898 450.81 823.565 451.477 836.232C451.81 839.565 450.81 842.232 448.477 844.232C446.143 846.232 443.31 847.232 439.977 847.232H415.977C412.643 847.232 410.143 846.565 408.477 845.232C406.81 843.898 405.143 841.232 403.477 837.232C397.81 821.232 389.81 809.898 379.477 803.232C369.143 796.232 356.143 792.732 340.477 792.732C319.81 792.732 303.31 799.232 290.977 812.232C278.977 824.898 272.477 844.398 271.477 870.732L270.977 888.732L271.477 905.732C272.477 932.398 278.977 952.065 290.977 964.732C302.977 977.398 319.477 983.732 340.477 983.732C356.143 983.732 369.143 980.398 379.477 973.732C389.81 966.732 397.81 955.232 403.477 939.232C405.143 935.232 406.81 932.565 408.477 931.232C410.143 929.565 412.643 928.732 415.977 928.732H439.977C443.31 928.732 446.143 929.898 448.477 932.232C450.81 934.232 451.81 936.898 451.477 940.232C450.81 952.565 446.31 965.232 437.977 978.232C429.977 990.898 417.643 1001.57 400.977 1010.23C384.643 1018.9 364.31 1023.23 339.977 1023.23ZM522.855 1018.23C519.522 1018.23 516.689 1017.23 514.355 1015.23C512.355 1012.9 511.355 1010.07 511.355 1006.73V674.732C511.355 671.398 512.355 668.732 514.355 666.732C516.689 664.398 519.522 663.232 522.855 663.232H546.355C549.689 663.232 552.355 664.398 554.355 666.732C556.689 668.732 557.855 671.398 557.855 674.732V1006.73C557.855 1010.07 556.689 1012.9 554.355 1015.23C552.355 1017.23 549.689 1018.23 546.355 1018.23H522.855ZM738.938 1023.23C702.271 1023.23 673.771 1012.9 653.438 992.232C633.438 971.565 622.771 944.065 621.438 909.732L620.938 888.232L621.438 866.732C622.771 832.732 633.604 805.398 653.938 784.732C674.271 763.732 702.604 753.232 738.938 753.232C775.271 753.232 803.604 763.732 823.938 784.732C844.271 805.398 855.104 832.732 856.438 866.732C856.771 870.398 856.938 877.565 856.938 888.232C856.938 898.898 856.771 906.065 856.438 909.732C855.104 944.065 844.271 971.565 823.938 992.232C803.938 1012.9 775.604 1023.23 738.938 1023.23ZM738.938 984.732C759.938 984.732 776.438 978.065 788.438 964.732C800.771 951.398 807.438 932.232 808.438 907.232C808.771 903.898 808.938 897.565 808.938 888.232C808.938 878.898 808.771 872.565 808.438 869.232C807.438 844.232 800.771 825.065 788.438 811.732C776.438 798.398 759.938 791.732 738.938 791.732C717.938 791.732 701.271 798.398 688.938 811.732C676.604 825.065 670.104 844.232 669.438 869.232L668.937 888.232L669.438 907.232C670.104 932.232 676.604 951.398 688.938 964.732C701.271 978.065 717.938 984.732 738.938 984.732ZM1016.55 1023.23C984.88 1023.23 960.38 1013.07 943.047 992.732C925.714 972.065 917.047 944.732 917.047 910.732V769.732C917.047 766.398 918.047 763.732 920.047 761.732C922.38 759.398 925.214 758.232 928.547 758.232H953.547C956.88 758.232 959.547 759.398 961.547 761.732C963.88 763.732 965.047 766.398 965.047 769.732V908.232C965.047 957.898 986.714 982.732 1030.05 982.732C1051.05 982.732 1067.71 976.232 1080.05 963.232C1092.38 949.898 1098.55 931.565 1098.55 908.232V769.732C1098.55 766.398 1099.55 763.732 1101.55 761.732C1103.88 759.398 1106.71 758.232 1110.05 758.232H1135.05C1138.38 758.232 1141.05 759.398 1143.05 761.732C1145.05 763.732 1146.05 766.398 1146.05 769.732V1006.73C1146.05 1010.07 1145.05 1012.9 1143.05 1015.23C1141.05 1017.23 1138.38 1018.23 1135.05 1018.23H1111.55C1108.21 1018.23 1105.38 1017.23 1103.05 1015.23C1101.05 1012.9 1100.05 1010.07 1100.05 1006.73V984.732C1090.71 997.398 1079.38 1007.07 1066.05 1013.73C1052.71 1020.07 1036.21 1023.23 1016.55 1023.23ZM1315.33 1023.23C1280.66 1023.23 1254.49 1011.9 1236.83 989.232C1219.16 966.565 1209.83 937.898 1208.83 903.232L1208.33 888.232L1208.83 873.232C1209.83 838.898 1219.16 810.398 1236.83 787.732C1254.49 764.732 1280.66 753.232 1315.33 753.232C1349.66 753.232 1376.66 765.398 1396.33 789.732V674.732C1396.33 671.398 1397.33 668.732 1399.33 666.732C1401.66 664.398 1404.49 663.232 1407.83 663.232H1431.83C1435.16 663.232 1437.83 664.398 1439.83 666.732C1442.16 668.732 1443.33 671.398 1443.33 674.732V1006.73C1443.33 1010.07 1442.16 1012.9 1439.83 1015.23C1437.83 1017.23 1435.16 1018.23 1431.83 1018.23H1409.33C1405.99 1018.23 1403.16 1017.23 1400.83 1015.23C1398.83 1012.9 1397.83 1010.07 1397.83 1006.73V985.732C1378.49 1010.73 1350.99 1023.23 1315.33 1023.23ZM1325.83 982.732C1348.83 982.732 1365.99 975.232 1377.33 960.232C1388.99 944.898 1395.33 926.732 1396.33 905.732C1396.66 902.065 1396.83 895.732 1396.83 886.732C1396.83 877.398 1396.66 870.898 1396.33 867.232C1395.66 847.565 1389.33 830.398 1377.33 815.732C1365.33 801.065 1348.16 793.732 1325.83 793.732C1302.16 793.732 1284.83 801.065 1273.83 815.732C1263.16 830.398 1257.33 849.732 1256.33 873.732L1255.83 888.232C1255.83 951.232 1279.16 982.732 1325.83 982.732ZM1607.69 1023.23C1584.36 1023.23 1564.69 1019.57 1548.69 1012.23C1533.02 1004.57 1521.19 995.898 1513.19 986.232C1505.52 976.565 1501.69 968.565 1501.69 962.232C1501.69 958.898 1502.86 956.398 1505.19 954.732C1507.86 952.732 1510.52 951.732 1513.19 951.732H1535.69C1539.02 951.732 1542.02 953.398 1544.69 956.732C1552.69 966.065 1561.36 973.398 1570.69 978.732C1580.02 984.065 1592.52 986.732 1608.19 986.732C1625.52 986.732 1639.52 983.398 1650.19 976.732C1661.19 969.732 1666.69 960.232 1666.69 948.232C1666.69 940.232 1664.36 933.732 1659.69 928.732C1655.36 923.398 1647.69 918.898 1636.69 915.232C1626.02 911.232 1610.02 906.898 1588.69 902.232C1559.69 895.898 1539.02 886.732 1526.69 874.732C1514.69 862.732 1508.69 847.232 1508.69 828.232C1508.69 815.565 1512.36 803.565 1519.69 792.232C1527.36 780.565 1538.36 771.232 1552.69 764.232C1567.36 756.898 1584.86 753.232 1605.19 753.232C1626.52 753.232 1644.69 756.732 1659.69 763.732C1674.69 770.732 1685.86 779.065 1693.19 788.732C1700.86 798.065 1704.69 805.898 1704.69 812.232C1704.69 815.232 1703.52 817.732 1701.19 819.732C1699.19 821.732 1696.69 822.732 1693.69 822.732H1672.69C1668.69 822.732 1665.36 821.065 1662.69 817.732C1657.36 811.398 1652.69 806.565 1648.69 803.232C1645.02 799.565 1639.52 796.398 1632.19 793.732C1625.19 791.065 1616.19 789.732 1605.19 789.732C1589.19 789.732 1576.86 793.232 1568.19 800.232C1559.52 806.898 1555.19 815.732 1555.19 826.732C1555.19 833.732 1557.02 839.732 1560.69 844.732C1564.36 849.398 1571.36 853.732 1581.69 857.732C1592.36 861.732 1607.69 865.898 1627.69 870.232C1659.36 876.898 1681.69 886.565 1694.69 899.232C1708.02 911.565 1714.69 927.398 1714.69 946.732C1714.69 961.065 1710.52 974.065 1702.19 985.732C1693.86 997.398 1681.52 1006.57 1665.19 1013.23C1649.19 1019.9 1630.02 1023.23 1607.69 1023.23ZM1784.57 1113.23C1781.24 1113.23 1778.41 1112.07 1776.07 1109.73C1774.07 1107.73 1773.07 1105.07 1773.07 1101.73V769.732C1773.07 766.398 1774.07 763.732 1776.07 761.732C1778.41 759.398 1781.24 758.232 1784.57 758.232H1807.57C1810.91 758.232 1813.57 759.398 1815.57 761.732C1817.91 763.732 1819.07 766.398 1819.07 769.732V791.732C1837.74 766.065 1865.07 753.232 1901.07 753.232C1936.07 753.232 1962.24 764.232 1979.57 786.232C1997.24 808.232 2006.74 836.565 2008.07 871.232C2008.41 874.898 2008.57 880.565 2008.57 888.232C2008.57 895.898 2008.41 901.565 2008.07 905.232C2006.74 939.565 1997.24 967.898 1979.57 990.232C1961.91 1012.23 1935.74 1023.23 1901.07 1023.23C1866.41 1023.23 1839.41 1010.73 1820.07 985.732V1101.73C1820.07 1105.07 1819.07 1107.73 1817.07 1109.73C1815.07 1112.07 1812.41 1113.23 1809.07 1113.23H1784.57ZM1890.57 982.732C1914.24 982.732 1931.41 975.398 1942.07 960.732C1953.07 946.065 1959.07 926.732 1960.07 902.732C1960.41 899.398 1960.57 894.565 1960.57 888.232C1960.57 825.232 1937.24 793.732 1890.57 793.732C1867.57 793.732 1850.24 801.398 1838.57 816.732C1827.24 831.732 1821.07 849.732 1820.07 870.732L1819.57 889.732L1820.07 909.232C1820.74 928.898 1827.07 946.065 1839.07 960.732C1851.07 975.398 1868.24 982.732 1890.57 982.732ZM2081.93 1018.23C2078.59 1018.23 2075.76 1017.23 2073.43 1015.23C2071.43 1012.9 2070.43 1010.07 2070.43 1006.73V770.232C2070.43 766.898 2071.43 764.065 2073.43 761.732C2075.76 759.398 2078.59 758.232 2081.93 758.232H2104.93C2108.26 758.232 2111.09 759.398 2113.43 761.732C2115.76 764.065 2116.93 766.898 2116.93 770.232V792.232C2130.59 769.565 2153.93 758.232 2186.93 758.232H2206.43C2209.76 758.232 2212.43 759.398 2214.43 761.732C2216.76 763.732 2217.93 766.398 2217.93 769.732V790.232C2217.93 793.565 2216.76 796.232 2214.43 798.232C2212.43 800.232 2209.76 801.232 2206.43 801.232H2176.43C2158.43 801.232 2144.26 806.565 2133.93 817.232C2123.59 827.565 2118.43 841.732 2118.43 859.732V1006.73C2118.43 1010.07 2117.26 1012.9 2114.93 1015.23C2112.59 1017.23 2109.76 1018.23 2106.43 1018.23H2081.93ZM2267.87 709.732C2264.53 709.732 2261.7 708.732 2259.37 706.732C2257.37 704.398 2256.37 701.565 2256.37 698.232V671.232C2256.37 667.898 2257.37 665.065 2259.37 662.732C2261.7 660.398 2264.53 659.232 2267.87 659.232H2299.37C2302.7 659.232 2305.53 660.398 2307.87 662.732C2310.2 665.065 2311.37 667.898 2311.37 671.232V698.232C2311.37 701.565 2310.2 704.398 2307.87 706.732C2305.53 708.732 2302.7 709.732 2299.37 709.732H2267.87ZM2271.87 1018.23C2268.53 1018.23 2265.7 1017.23 2263.37 1015.23C2261.37 1012.9 2260.37 1010.07 2260.37 1006.73V769.732C2260.37 766.398 2261.37 763.732 2263.37 761.732C2265.7 759.398 2268.53 758.232 2271.87 758.232H2295.87C2299.2 758.232 2301.87 759.398 2303.87 761.732C2306.2 763.732 2307.37 766.398 2307.37 769.732V1006.73C2307.37 1010.07 2306.2 1012.9 2303.87 1015.23C2301.87 1017.23 2299.2 1018.23 2295.87 1018.23H2271.87ZM2392.96 1018.23C2389.63 1018.23 2386.79 1017.23 2384.46 1015.23C2382.46 1012.9 2381.46 1010.07 2381.46 1006.73V769.732C2381.46 766.398 2382.46 763.732 2384.46 761.732C2386.79 759.398 2389.63 758.232 2392.96 758.232H2416.46C2419.79 758.232 2422.46 759.398 2424.46 761.732C2426.79 763.732 2427.96 766.398 2427.96 769.732V791.732C2437.63 779.398 2448.96 769.898 2461.96 763.232C2475.29 756.565 2491.79 753.232 2511.46 753.232C2543.46 753.232 2568.29 763.565 2585.96 784.232C2603.96 804.565 2612.96 831.732 2612.96 865.732V1006.73C2612.96 1010.07 2611.79 1012.9 2609.46 1015.23C2607.46 1017.23 2604.79 1018.23 2601.46 1018.23H2576.46C2573.13 1018.23 2570.29 1017.23 2567.96 1015.23C2565.96 1012.9 2564.96 1010.07 2564.96 1006.73V868.232C2564.96 844.565 2559.13 826.232 2547.46 813.232C2536.13 800.232 2519.63 793.732 2497.96 793.732C2476.96 793.732 2460.29 800.398 2447.96 813.732C2435.63 826.732 2429.46 844.898 2429.46 868.232V1006.73C2429.46 1010.07 2428.29 1012.9 2425.96 1015.23C2423.96 1017.23 2421.29 1018.23 2417.96 1018.23H2392.96ZM2791.18 1128.23C2763.85 1128.23 2741.85 1123.57 2725.18 1114.23C2708.52 1105.23 2696.68 1094.9 2689.68 1083.23C2682.68 1071.57 2678.85 1061.07 2678.18 1051.73C2677.85 1048.4 2678.85 1045.57 2681.18 1043.23C2683.85 1040.9 2686.68 1039.73 2689.68 1039.73H2713.68C2716.68 1039.73 2719.18 1040.4 2721.18 1041.73C2723.18 1043.4 2724.85 1046.23 2726.18 1050.23C2730.18 1060.9 2736.68 1070.07 2745.68 1077.73C2755.02 1085.73 2769.35 1089.73 2788.68 1089.73C2813.35 1089.73 2831.52 1084.4 2843.18 1073.73C2854.85 1063.4 2860.68 1044.9 2860.68 1018.23V984.232C2852.02 995.232 2841.02 1004.07 2827.68 1010.73C2814.35 1017.07 2798.52 1020.23 2780.18 1020.23C2744.85 1020.23 2718.35 1009.07 2700.68 986.732C2683.35 964.065 2674.18 935.398 2673.18 900.732L2672.68 886.732L2673.18 873.232C2674.18 838.898 2683.52 810.398 2701.18 787.732C2718.85 764.732 2745.18 753.232 2780.18 753.232C2815.18 753.232 2842.52 766.065 2862.18 791.732V770.232C2862.18 766.898 2863.18 764.065 2865.18 761.732C2867.52 759.398 2870.35 758.232 2873.68 758.232H2896.68C2900.02 758.232 2902.85 759.398 2905.18 761.732C2907.52 764.065 2908.68 766.898 2908.68 770.232V1012.73C2908.68 1089.73 2869.52 1128.23 2791.18 1128.23ZM2790.18 980.232C2812.85 980.232 2830.02 972.732 2841.68 957.732C2853.35 942.732 2859.68 924.898 2860.68 904.232C2861.02 901.232 2861.18 895.398 2861.18 886.732C2861.18 878.398 2861.02 872.732 2860.68 869.732C2859.68 849.065 2853.35 831.232 2841.68 816.232C2830.35 801.232 2813.18 793.732 2790.18 793.732C2766.52 793.732 2749.35 801.065 2738.68 815.732C2728.02 830.398 2722.18 849.732 2721.18 873.732L2720.68 886.732L2721.18 900.232C2722.18 923.898 2728.02 943.232 2738.68 958.232C2749.35 972.898 2766.52 980.232 2790.18 980.232Z" fill="white"/>
<path d="M1906.63 417.734C1897.82 417.734 1890.77 409.313 1890.77 398.787V139.844C1890.77 129.318 1897.82 120.897 1906.63 120.897H1908.4C1917.21 120.897 1924.26 129.318 1924.26 139.844V398.787C1924.26 409.313 1917.21 417.734 1908.4 417.734H1906.63Z" fill="white"/>
<path d="M1907.83 123.065C1915.47 123.065 1921.93 130.784 1921.93 139.906V398.848C1921.93 407.971 1915.47 415.69 1907.83 415.69H1906.07C1898.43 415.69 1891.96 407.971 1891.96 398.848V139.906C1891.96 130.784 1898.43 123.065 1906.07 123.065H1907.83ZM1907.83 118.152H1906.07C1896.08 118.152 1887.85 127.977 1887.85 139.906V398.848C1887.85 410.778 1896.08 420.602 1906.07 420.602H1907.83C1917.82 420.602 1926.05 410.778 1926.05 398.848V139.906C1926.05 127.977 1917.82 118.152 1907.83 118.152Z" fill="white"/>
<path d="M1906.65 423.117C1899.6 423.117 1893.13 417.503 1890.78 409.784L1802.63 120.667C1800.87 115.755 1801.46 110.141 1803.22 105.229C1804.98 100.317 1808.51 96.8079 1812.62 94.7027C1814.39 94.0009 1816.15 93.2992 1818.5 93.2992C1825.55 93.2992 1832.02 98.9131 1834.37 106.632L1922.51 395.749C1924.28 400.661 1923.69 406.275 1921.93 411.188C1920.16 416.1 1916.64 419.608 1912.52 421.714C1910.76 422.415 1909 423.117 1906.65 423.117Z" fill="white"/>
<path d="M1818.52 96.0953C1824.4 96.0953 1830.27 101.008 1832.04 107.323L1920.19 396.44C1921.36 400.65 1921.36 405.563 1919.6 409.773C1917.83 413.983 1914.9 417.492 1911.37 418.896C1909.61 419.597 1907.84 419.597 1906.67 419.597C1900.79 419.597 1894.92 414.685 1893.15 408.37L1805.01 119.253C1803.83 115.042 1803.83 110.13 1805.59 105.92C1807.36 101.709 1810.29 98.2006 1813.82 96.7971C1815 96.7971 1816.76 96.0953 1818.52 96.0953ZM1818.52 91.1832C1816.17 91.1832 1814.41 91.8849 1812.06 92.5866C1802.07 96.7971 1797.37 110.13 1800.89 121.358L1889.04 410.475C1891.98 419.597 1899.03 425.211 1907.26 425.211C1909.61 425.211 1911.37 424.51 1913.72 423.808C1923.71 419.597 1928.41 406.264 1924.89 395.037L1836.74 105.92C1833.8 96.7971 1826.16 91.1832 1818.52 91.1832Z" fill="white"/>
<path d="M1837.92 460.296C1830.87 460.296 1824.4 454.682 1822.05 446.963L1709.22 75.7426C1707.46 70.8304 1708.05 65.2165 1709.81 60.3043C1711.58 55.3921 1715.1 51.8834 1719.21 49.7782C1720.98 49.0765 1722.74 48.3747 1725.09 48.3747C1732.14 48.3747 1738.61 53.9886 1740.96 61.7078L1853.79 432.227C1855.55 437.139 1854.96 442.753 1853.2 447.665C1851.44 452.577 1847.91 456.086 1843.8 458.191C1841.45 459.594 1839.68 460.296 1837.92 460.296Z" fill="white"/>
<path d="M1724.51 51.8721C1730.38 51.8721 1736.26 56.7842 1738.02 63.0999L1850.85 433.619C1853.79 442.741 1849.67 452.566 1842.03 456.074C1840.27 456.776 1838.51 456.776 1837.33 456.776C1831.46 456.776 1825.58 451.864 1823.82 445.548L1710.99 75.0295C1709.81 70.8191 1709.81 65.9069 1711.58 61.6964C1713.34 57.486 1716.28 53.9773 1719.8 52.5738C1721.57 51.8721 1723.33 51.8721 1724.51 51.8721ZM1724.51 46.2582C1722.15 46.2582 1720.39 46.9599 1718.04 47.6616C1708.05 51.8721 1703.35 65.2051 1706.88 76.433L1819.7 446.952C1822.64 456.074 1829.69 461.688 1837.92 461.688C1840.27 461.688 1842.03 460.986 1844.39 460.285C1854.38 456.074 1859.08 442.741 1855.55 431.513L1742.72 61.6964C1739.78 51.8721 1732.73 46.2582 1724.51 46.2582Z" fill="white"/>
<path d="M1766.78 485.996C1759.73 485.996 1753.27 480.382 1750.92 472.662L1623.99 55.8288C1622.22 50.9166 1622.81 45.3027 1624.57 40.3906C1626.34 35.4784 1629.86 31.9697 1633.98 29.8644C1635.74 29.1627 1637.5 28.4609 1639.85 28.4609C1646.9 28.4609 1653.37 34.0749 1655.72 41.794L1782.65 458.628C1785.59 469.154 1781.48 480.382 1772.66 484.592C1770.9 485.996 1768.55 485.996 1766.78 485.996Z" fill="white"/>
<path d="M1639.87 31.257C1645.75 31.257 1651.63 36.1692 1653.39 42.4848L1780.32 459.319C1781.5 463.529 1781.5 468.441 1779.73 472.652C1777.97 476.862 1775.03 480.371 1771.51 481.774C1769.74 482.476 1767.98 482.476 1766.81 482.476C1760.93 482.476 1755.05 477.564 1753.29 471.248L1626.36 54.4145C1623.42 45.2918 1627.53 35.4674 1635.17 31.9587C1636.35 31.9587 1638.11 31.257 1639.87 31.257ZM1639.87 26.3448C1637.52 26.3448 1635.76 27.0466 1633.41 27.7483C1623.42 31.9587 1618.72 45.2918 1622.24 56.5196L1749.18 473.353C1752.11 482.476 1759.17 488.09 1767.39 488.09C1769.74 488.09 1771.51 487.388 1773.86 486.686C1783.85 482.476 1788.55 469.143 1785.02 457.915L1658.09 41.0814C1654.56 31.9588 1647.51 26.3448 1639.87 26.3448Z" fill="white"/>
<path d="M1697.46 519.389C1690.41 519.389 1683.95 513.776 1681.6 506.056L1537.04 31.68C1534.1 21.1539 1538.21 9.92609 1547.03 5.71565C1548.79 5.01391 1550.55 4.31213 1552.9 4.31213C1559.95 4.31213 1566.42 9.92607 1568.77 17.6452L1713.33 492.022C1716.27 502.548 1712.15 513.776 1703.34 517.986C1701.58 518.688 1699.23 519.389 1697.46 519.389Z" fill="white"/>
<path d="M1552.91 7.18572C1558.79 7.18572 1564.66 12.0979 1566.43 18.4135L1710.99 492.79C1712.16 497 1712.16 501.912 1710.4 506.123C1708.64 510.333 1705.7 513.842 1702.17 515.245C1700.41 515.947 1698.65 515.947 1697.47 515.947C1691.59 515.947 1685.72 511.035 1683.95 504.719L1539.39 30.3432C1538.22 26.1327 1538.22 21.2205 1539.98 17.0101C1541.74 12.7996 1544.68 9.29093 1548.21 7.88745C1549.38 7.88745 1551.15 7.18572 1552.91 7.18572ZM1552.91 2.27356C1550.56 2.27356 1548.8 2.97528 1546.45 3.67702C1536.46 7.88746 1531.75 21.2205 1535.28 32.4483L1679.84 506.824C1682.78 515.947 1689.83 521.561 1698.06 521.561C1700.41 521.561 1702.17 520.859 1704.52 520.158C1714.51 515.947 1719.21 502.614 1715.69 491.386L1571.13 17.0101C1568.19 7.88747 1560.55 2.27356 1552.91 2.27356Z" fill="white"/>
<path d="M1628.15 547.445C1621.1 547.445 1615.22 542.533 1612.87 534.814L1458.91 29.5612C1455.97 19.7369 1460.08 8.50904 1468.9 4.2986L1470.07 3.59687C1471.84 2.89513 1473.6 2.19336 1475.36 2.19336C1482.41 2.19336 1488.29 7.10556 1490.64 14.8247L1644.6 520.077C1646.37 524.99 1645.78 529.902 1644.02 534.814C1642.25 539.726 1638.73 543.235 1634.61 544.638L1633.44 545.34C1631.68 547.445 1629.91 547.445 1628.15 547.445Z" fill="white"/>
<path d="M1474.76 5.61389C1480.63 5.61389 1485.92 9.82437 1488.27 16.8418L1642.23 522.094C1645.17 530.515 1641.06 540.34 1634.01 543.848L1632.83 544.55C1631.07 545.252 1629.89 545.252 1628.13 545.252C1622.25 545.252 1616.97 541.041 1614.62 534.024L1460.65 28.7713C1457.71 20.3504 1461.83 10.5261 1468.88 7.0174L1470.05 6.31567C1471.82 5.61393 1472.99 5.61389 1474.76 5.61389ZM1474.76 0C1472.4 0 1470.64 0.701718 1468.29 1.40346L1467.12 2.10519C1457.71 6.31563 1452.42 18.9469 1455.95 30.1748L1609.91 535.427C1612.85 544.55 1619.9 550.164 1627.54 550.164C1629.89 550.164 1631.66 549.462 1634.01 548.761L1635.18 548.059C1644.59 543.848 1649.87 531.217 1646.35 519.989L1492.38 14.7365C1489.45 5.61391 1482.39 0 1474.76 0Z" fill="white"/>
<path d="M1543.51 516.185C1536.46 516.185 1530.58 511.273 1528.23 503.554L1397.18 71.9841C1395.42 67.0719 1396.01 62.1597 1397.77 57.2475C1399.53 52.3354 1403.06 48.8267 1407.17 47.4232L1408.35 46.7214C1410.11 46.0197 1411.87 45.3179 1413.64 45.3179C1420.69 45.3179 1426.57 50.2301 1428.92 57.9493L1559.96 488.818C1562.9 498.642 1558.79 509.87 1549.97 514.08L1548.8 514.782C1547.62 515.484 1545.27 516.185 1543.51 516.185Z" fill="white"/>
<path d="M1413.04 48.114C1418.92 48.114 1424.21 52.3244 1426.56 59.3418L1557.61 490.21C1560.54 498.631 1556.43 508.456 1549.38 511.964L1548.2 512.666C1546.44 513.368 1545.27 513.368 1543.5 513.368C1537.63 513.368 1532.34 509.157 1529.99 502.14L1398.94 71.2714C1397.77 67.061 1397.77 62.1488 1399.53 58.6401C1401.29 55.1314 1404.23 51.6227 1407.76 50.2192L1408.93 49.5175C1410.11 48.8157 1411.28 48.114 1413.04 48.114ZM1413.04 43.2018C1410.69 43.2018 1408.93 43.9036 1406.58 44.6053L1405.4 45.307C1396 49.5175 1390.71 62.1488 1394.24 73.3766L1525.29 504.245C1528.22 513.368 1535.28 518.982 1542.91 518.982C1545.27 518.982 1547.03 518.28 1549.38 517.578L1550.55 516.876C1559.96 512.666 1565.25 500.035 1561.72 488.807L1430.67 57.9384C1427.74 48.8158 1420.68 43.2018 1413.04 43.2018Z" fill="white"/>
<path d="M1460.06 491.571C1453.6 491.571 1448.31 486.659 1445.96 479.642L1335.48 117.544C1334.31 113.333 1334.31 108.421 1336.07 104.211C1337.83 100 1340.77 96.4914 1344.3 95.0879L1347.82 93.6845C1349.59 92.9827 1351.35 92.2809 1353.11 92.2809C1359.58 92.2809 1364.86 97.1932 1367.21 104.211L1477.69 466.309C1478.87 470.519 1478.87 475.431 1477.11 479.642C1475.34 483.852 1472.4 487.361 1468.88 488.764L1465.35 490.168C1463.59 490.87 1461.83 491.571 1460.06 491.571Z" fill="white"/>
<path d="M1353.1 94.4478C1358.39 94.4478 1363.09 98.6582 1364.85 104.272L1475.33 466.37C1476.5 469.879 1476.5 474.089 1474.74 477.598C1473.56 481.106 1470.63 483.913 1467.69 485.317L1464.16 486.72C1462.99 487.422 1461.22 487.422 1460.05 487.422C1454.76 487.422 1450.06 483.212 1448.3 477.598L1337.82 115.5C1335.47 107.781 1338.99 98.6582 1345.46 95.8513L1348.98 94.4478C1350.16 95.1495 1351.92 94.4478 1353.1 94.4478ZM1353.1 89.5356C1351.33 89.5356 1348.98 90.2374 1347.22 90.9391L1343.69 92.3426C1334.88 95.8513 1330.18 107.781 1333.7 118.307L1444.18 480.405C1446.53 488.826 1453 493.738 1460.05 493.738C1461.81 493.738 1464.16 493.036 1465.93 492.334L1469.45 490.931C1478.27 487.422 1482.97 475.493 1479.44 464.966L1368.96 102.869C1366.61 94.4478 1360.15 89.5356 1353.1 89.5356Z" fill="white"/>
<path d="M1376 464.071C1370.71 464.071 1365.42 459.861 1363.66 453.545L1274.93 163.025C1273.75 158.815 1273.75 154.604 1275.51 151.095C1277.28 147.587 1279.63 144.078 1283.15 142.675L1290.21 139.868C1291.38 139.166 1293.14 139.166 1294.91 139.166C1300.2 139.166 1305.48 143.376 1307.25 149.692L1395.98 440.212C1397.16 444.423 1397.16 448.633 1395.39 452.142C1393.63 455.651 1391.28 459.159 1387.75 460.563L1380.7 463.37C1378.94 464.071 1377.18 464.071 1376 464.071Z" fill="white"/>
<path d="M1293.74 141.956C1298.44 141.956 1302.56 145.465 1304.32 150.377L1393.05 440.898C1394.23 444.406 1393.64 447.915 1392.47 450.722C1391.29 454.231 1388.94 456.336 1386 457.74L1378.95 460.546C1377.77 461.248 1376.6 461.248 1375.42 461.248C1370.72 461.248 1366.61 457.74 1364.85 452.827L1276.11 162.307C1274.94 158.798 1275.52 155.29 1276.7 152.483C1277.87 148.974 1280.22 146.869 1283.16 145.465L1290.21 142.658C1291.39 141.956 1292.56 141.956 1293.74 141.956ZM1293.74 136.343C1291.98 136.343 1290.21 137.044 1288.45 137.746L1281.4 140.553C1273.17 144.062 1269.06 154.588 1272 164.412L1360.73 454.933C1363.08 462.652 1368.96 466.862 1375.42 466.862C1377.19 466.862 1378.95 466.16 1380.71 465.459L1387.76 462.652C1395.99 459.143 1400.1 448.617 1397.17 438.793L1308.43 148.272C1306.08 141.255 1300.2 136.343 1293.74 136.343Z" fill="white"/>
<path d="M1301.99 445.763C1297.87 445.763 1293.76 442.254 1292.58 438.044L1220.89 202.961C1219.13 196.645 1221.48 189.628 1226.77 187.523L1231.47 185.417C1232.64 184.716 1233.82 184.716 1234.99 184.716C1239.11 184.716 1243.22 188.224 1244.4 192.435L1316.09 427.518C1317.26 430.325 1316.68 433.833 1315.5 436.64C1314.33 439.447 1312.56 441.552 1309.62 442.956L1304.92 445.061C1304.34 445.763 1303.16 445.763 1301.99 445.763Z" fill="white"/>
<path d="M1234.98 187.434C1238.51 187.434 1241.45 190.241 1242.62 193.75L1314.32 428.833C1316.08 433.745 1313.73 439.359 1309.62 440.763L1304.91 442.868C1304.33 443.57 1303.15 443.57 1301.98 443.57C1298.45 443.57 1295.51 440.763 1294.34 437.254L1222.64 202.171C1220.88 197.259 1223.23 191.645 1227.34 190.241L1232.05 188.136C1233.22 187.434 1234.4 187.434 1234.98 187.434ZM1234.98 182.522C1233.81 182.522 1232.05 182.522 1230.87 183.224L1226.17 185.329C1219.7 188.136 1216.77 196.557 1219.12 204.276L1290.81 439.359C1292.57 444.973 1297.27 449.184 1302.56 449.184C1303.74 449.184 1305.5 449.184 1306.68 448.482L1311.38 446.377C1317.84 443.57 1320.78 435.149 1318.43 427.43L1246.74 192.347C1244.97 186.031 1240.27 182.522 1234.98 182.522Z" fill="white"/>
<path d="M1232.04 415.515C1225.58 415.515 1220.29 409.199 1220.29 401.48V199.379C1220.29 191.66 1225.58 185.344 1232.04 185.344H1233.22C1239.68 185.344 1244.97 191.66 1244.97 199.379V401.48C1244.97 409.199 1239.68 415.515 1233.22 415.515H1232.04Z" fill="white"/>
<path d="M1233.22 187.508C1238.51 187.508 1243.21 193.122 1243.21 199.438V401.539C1243.21 407.855 1238.51 413.469 1233.22 413.469H1232.04C1226.76 413.469 1222.05 407.855 1222.05 401.539V199.438C1222.05 193.122 1226.76 187.508 1232.04 187.508H1233.22ZM1233.22 181.894H1232.04C1224.4 181.894 1217.94 189.614 1217.94 198.736V400.837C1217.94 409.96 1224.4 417.679 1232.04 417.679H1233.22C1240.86 417.679 1247.32 409.96 1247.32 400.837V198.736C1247.91 189.614 1241.45 181.894 1233.22 181.894Z" fill="white"/>
</svg>
