<?xml version="1.0" encoding="utf-8"?>
<!-- Generator: Adobe Illustrator 23.0.2, SVG Export Plug-In . SVG Version: 6.00 Build 0)  -->
<svg version="1.1" id="Layer_1" xmlns="http://www.w3.org/2000/svg" xmlns:xlink="http://www.w3.org/1999/xlink" x="0px" y="0px"
	 viewBox="0 0 100 100" style="enable-background:new 0 0 100 100;" xml:space="preserve">
<style type="text/css">
	.st0{fill-rule:evenodd;clip-rule:evenodd;fill:#FFFFFF;}
</style>
<path class="st0" d="M50,0C22.4,0,0,22.4,0,50s22.4,50,50,50c27.5,0,50-22.4,50-50S77.5,0,50,0z M83,23c6,7.3,9.5,16.5,9.7,26.6
	c-1.4-0.3-15.5-3.1-29.7-1.4c-0.3-0.7-0.6-1.5-0.9-2.2c-0.9-2.1-1.8-4.2-2.8-6.2C74.9,33.5,82.1,24.2,83,23z M50,7.4
	c10.8,0,20.8,4.1,28.3,10.7c-0.8,1.1-7.2,9.7-22.4,15.4c-7-12.9-14.8-23.4-15.9-25C43.2,7.8,46.5,7.4,50,7.4z M31.8,11.4
	c1.1,1.5,8.7,12.1,15.8,24.7c-20,5.3-37.6,5.2-39.5,5.2C11,28,19.9,17,31.8,11.4z M7.3,50.1c0-0.4,0-0.9,0-1.3
	c1.8,0.1,22.6,0.3,43.9-6.1c1.2,2.4,2.4,4.8,3.5,7.3c-0.5,0.2-1.1,0.3-1.7,0.5c-22,7.1-33.7,26.5-34.7,28.1C11.4,71,7.3,61,7.3,50.1
	z M50,92.7c-9.9,0-19-3.4-26.2-9c0.8-1.6,9.4-18.3,33.5-26.7c0.1-0.1,0.2-0.1,0.3-0.1c6,15.6,8.5,28.6,9.1,32.4
	C61.6,91.5,55.9,92.7,50,92.7z M73.8,85.4c-0.4-2.6-2.7-15.1-8.3-30.4c13.4-2.1,25.1,1.4,26.6,1.8C90.2,68.7,83.4,79,73.8,85.4z"/>
</svg>
