<?xml version="1.0" encoding="utf-8"?>
<!-- Generator: Adobe Illustrator 23.0.2, SVG Export Plug-In . SVG Version: 6.00 Build 0)  -->
<svg version="1.1" id="Layer_1" xmlns="http://www.w3.org/2000/svg" xmlns:xlink="http://www.w3.org/1999/xlink" x="0px" y="0px"
	 viewBox="0 0 264 264" style="enable-background:new 0 0 264 264;" xml:space="preserve">
<style type="text/css">
	.st0{fill-rule:evenodd;clip-rule:evenodd;fill:#FFFFFF;}
	.st1{fill:#FFFFFF;}
</style>
<g>
	<path class="st0" d="M132,12C64.1,12,9,67.1,9,135c0,54.3,35.2,100.4,84.1,116.7c6.1,1.1,8.4-2.7,8.4-5.9c0-2.9-0.1-12.6-0.2-22.9
		c-34.2,7.4-41.4-14.5-41.4-14.5c-5.6-14.2-13.7-18-13.7-18c-11.2-7.6,0.8-7.5,0.8-7.5c12.4,0.9,18.9,12.7,18.9,12.7
		c11,18.8,28.8,13.4,35.8,10.2c1.1-7.9,4.3-13.4,7.8-16.4c-27.3-3.1-56-13.7-56-60.8c0-13.4,4.8-24.4,12.7-33
		C64.9,92.5,60.7,80,67.4,63c0,0,10.3-3.3,33.8,12.6c9.8-2.7,20.3-4.1,30.8-4.1c10.5,0,21,1.4,30.8,4.1
		C186.3,59.7,196.6,63,196.6,63c6.7,16.9,2.5,29.5,1.2,32.6c7.9,8.6,12.7,19.6,12.7,33c0,47.2-28.8,57.6-56.2,60.7
		c4.4,3.8,8.3,11.3,8.3,22.8c0,16.5-0.1,29.7-0.1,33.8c0,3.3,2.2,7.1,8.4,5.9c48.8-16.3,84-62.4,84-116.7C255,67.1,199.9,12,132,12z
		"/>
	<path class="st1" d="M55.6,188.6c-0.3,0.6-1.2,0.8-2.1,0.4c-0.9-0.4-1.4-1.2-1.1-1.8c0.3-0.6,1.2-0.8,2.1-0.4
		C55.4,187.2,55.9,188,55.6,188.6L55.6,188.6z M54.1,187.5"/>
	<path class="st1" d="M60.6,194.2c-0.6,0.5-1.7,0.3-2.5-0.6c-0.8-0.9-1-2-0.4-2.6c0.6-0.5,1.7-0.3,2.5,0.6
		C61,192.5,61.2,193.6,60.6,194.2L60.6,194.2z M59.4,192.9"/>
	<path class="st1" d="M65.4,201.3c-0.8,0.5-2,0-2.7-1.1c-0.8-1.1-0.8-2.4,0-2.9c0.8-0.5,2-0.1,2.7,1
		C66.2,199.4,66.2,200.7,65.4,201.3L65.4,201.3z M65.4,201.3"/>
	<path class="st1" d="M72.1,208.1c-0.7,0.7-2.1,0.5-3.2-0.5c-1.1-1-1.4-2.4-0.7-3.1c0.7-0.7,2.1-0.5,3.2,0.5
		C72.5,206,72.8,207.4,72.1,208.1L72.1,208.1z M72.1,208.1"/>
	<path class="st1" d="M81.2,212.1c-0.3,1-1.7,1.4-3.1,1c-1.4-0.4-2.3-1.5-2-2.5c0.3-1,1.7-1.4,3.1-1C80.6,210,81.5,211.1,81.2,212.1
		L81.2,212.1z M81.2,212.1"/>
	<path class="st1" d="M91.3,212.8c0,1-1.1,1.9-2.6,1.9c-1.5,0-2.7-0.8-2.7-1.8c0-1,1.2-1.9,2.6-1.9C90.1,211,91.3,211.8,91.3,212.8
		L91.3,212.8z M91.3,212.8"/>
	<path class="st1" d="M100.7,211.2c0.2,1-0.8,2-2.3,2.3c-1.4,0.3-2.7-0.3-2.9-1.3c-0.2-1,0.9-2,2.3-2.3
		C99.2,209.6,100.5,210.2,100.7,211.2L100.7,211.2z M100.7,211.2"/>
</g>
</svg>
