<svg width="101" height="101" viewBox="0 0 101 101" fill="none" xmlns="http://www.w3.org/2000/svg">
<path fill-rule="evenodd" clip-rule="evenodd" d="M50.6861 101C78.4737 101 101 78.4734 101 50.6855C101 22.8976 78.4737 0.371094 50.6861 0.371094C22.8985 0.371094 0.372131 22.8976 0.372131 50.6855C0.372131 78.4734 22.8985 101 50.6861 101ZM50.6861 98C76.8168 98 98 76.8166 98 50.6855C98 24.5545 76.8168 3.37109 50.6861 3.37109C24.5553 3.37109 3.37213 24.5545 3.37213 50.6855C3.37213 76.8166 24.5553 98 50.6861 98Z" fill="#796423"/>
<path d="M24.302 72.3792L34.2687 75.5547L37.8048 72.039L31.1177 65.3904L24.302 72.3792ZM36.7315 48.5765C36.2064 49.0373 35.8257 49.6385 35.6349 50.3085C35.444 50.9785 35.4511 51.6889 35.6552 52.355L36.9569 56.6026L31.8768 61.6545L41.4755 71.198L46.5486 66.154L50.8118 67.4512C52.1813 67.8677 53.6696 67.4502 54.6172 66.3821L58.1632 62.2525L40.873 45.0618L36.7315 48.5765ZM76.9605 32.6393L70.6565 26.3715C68.6127 24.3394 65.332 24.2373 63.1635 26.1385L43.3088 42.994L60.2429 59.8317L77.195 40.0902C79.1081 37.9342 79.0054 34.6723 76.9605 32.6393Z" fill="#796423"/>
</svg>
