<?xml version="1.0" encoding="utf-8"?>
<!-- Generator: Adobe Illustrator 23.0.3, SVG Export Plug-In . SVG Version: 6.00 Build 0)  -->
<svg version="1.1" id="Layer_1" xmlns="http://www.w3.org/2000/svg" xmlns:xlink="http://www.w3.org/1999/xlink" x="0px" y="0px"
	 viewBox="0 0 101 101" style="enable-background:new 0 0 101 101;" xml:space="preserve">
<style type="text/css">
	.st0{fill-rule:evenodd;clip-rule:evenodd;fill:#796423;}
	.st1{fill:#796423;}
</style>
<path class="st0" d="M99.7,50.5c0,27.3-22,49.5-49.2,49.5C23.4,100,1.4,77.8,1.4,50.5S23.4,1,50.5,1C77.7,1,99.7,23.2,99.7,50.5z
	 M96.8,50.5c0,25.7-20.7,46.6-46.2,46.6C25,97.1,4.3,76.2,4.3,50.5S25,3.9,50.5,3.9C76.1,3.9,96.8,24.8,96.8,50.5z"/>
<path class="st1" d="M23.9,72.7l9.8,3.1l3.5-3.4l-6.5-6.5L23.9,72.7z M36.1,49.4c-0.5,0.5-0.9,1-1.1,1.7c-0.2,0.7-0.2,1.4,0,2
	l1.3,4.2l-5,4.9l9.4,9.3l5-4.9l4.2,1.3c1.3,0.4,2.8,0,3.7-1l3.5-4L40.2,46L36.1,49.4z M75.5,33.8l-6.2-6.1c-2-2-5.2-2.1-7.3-0.2
	L42.5,44l16.6,16.5l16.6-19.3C77.6,39,77.5,35.8,75.5,33.8z"/>
</svg>
