<?xml version="1.0" encoding="utf-8"?>
<!-- Generator: Adobe Illustrator 24.0.0, SVG Export Plug-In . SVG Version: 6.00 Build 0)  -->
<svg version="1.1" id="Layer_1" xmlns="http://www.w3.org/2000/svg" xmlns:xlink="http://www.w3.org/1999/xlink" x="0px" y="0px"
	 viewBox="0 0 101 101" style="enable-background:new 0 0 101 101;" xml:space="preserve">
<style type="text/css">
	.st0{fill-rule:evenodd;clip-rule:evenodd;fill:#796423;}
	.st1{fill:#796423;}
</style>
<path class="st0" d="M96.8,50.5c0,25.7-20.7,46.6-46.3,46.6C25,97.1,4.3,76.2,4.3,50.5S25,3.9,50.5,3.9
	C76.1,3.9,96.8,24.8,96.8,50.5z M94.1,50.5c0,24.2-19.5,43.9-43.5,43.9C26.5,94.4,7,74.7,7,50.5S26.5,6.6,50.5,6.6
	C74.6,6.6,94.1,26.3,94.1,50.5z"/>
<g>
	<g>
		<g>
			<g>
				<g>
					<path class="st1" d="M77.4,66l-13-10.6c5.5-9,4.4-21-3.4-28.8c-9.1-9.1-24-9.1-33.1,0c-4.4,4.4-6.9,10.3-6.9,16.6
						s2.4,12.1,6.9,16.6c4.6,4.6,10.6,6.8,16.6,6.8c4.3,0,8.5-1.2,12.3-3.5l10.6,13c1.3,1.5,3.1,2.5,5.1,2.6h0.3
						c1.9,0,3.7-0.7,5-2.1c1.4-1.4,2.2-3.4,2.1-5.4C79.9,69.1,79,67.3,77.4,66z M60.8,56.4c-0.2,0.3-0.5,0.6-0.8,0.9
						c-0.2,0.2-0.4,0.4-0.6,0.6c-0.2,0.2-0.4,0.3-0.5,0.5c-0.3,0.3-0.7,0.6-1,0.9c-0.3,0.2-0.5,0.4-0.8,0.6c-8.2,6.1-20,5.5-27.4-2
						c-4-4-6.2-9.3-6.2-14.9c0-5.6,2.2-10.9,6.2-14.9c4.1-4.1,9.5-6.2,14.9-6.2c5.4,0,10.8,2.1,14.9,6.2c7.5,7.5,8.1,19.3,1.9,27.5
						C61.2,56,61,56.2,60.8,56.4z"/>
				</g>
			</g>
		</g>
	</g>
	<g>
		<g>
			<g>
				<g>
					<path class="st1" d="M57.4,53.5V42.6c0-0.6-0.5-1.2-1.2-1.2h-4.3c-0.6,0-1.2,0.5-1.2,1.2v10.9c0,0.7,0.5,1.2,1.2,1.2h4.3
						C56.8,54.7,57.4,54.2,57.4,53.5z"/>
				</g>
			</g>
		</g>
	</g>
	<g>
		<g>
			<g>
				<g>
					<path class="st1" d="M37.2,37.6h-4.3c-0.6,0-1.2,0.5-1.2,1.2v14.7c0,0.7,0.5,1.2,1.2,1.2h4.3c0.6,0,1.2-0.5,1.2-1.2V38.8
						C38.4,38.2,37.8,37.6,37.2,37.6z"/>
				</g>
			</g>
		</g>
	</g>
	<g>
		<g>
			<g>
				<g>
					<path class="st1" d="M46.7,31.5h-4.3c-0.6,0-1.2,0.5-1.2,1.2v20.9c0,0.7,0.5,1.2,1.2,1.2h4.3c0.6,0,1.2-0.5,1.2-1.2V32.7
						C47.9,32,47.3,31.5,46.7,31.5z"/>
				</g>
			</g>
		</g>
	</g>
</g>
</svg>
