<?xml version="1.0" encoding="utf-8"?>
<!-- Generator: Adobe Illustrator 24.0.0, SVG Export Plug-In . SVG Version: 6.00 Build 0)  -->
<svg version="1.1" id="Layer_1" xmlns="http://www.w3.org/2000/svg" xmlns:xlink="http://www.w3.org/1999/xlink" x="0px" y="0px"
	 viewBox="0 0 101 101" style="enable-background:new 0 0 101 101;" xml:space="preserve">
<style type="text/css">
	.st0{fill-rule:evenodd;clip-rule:evenodd;fill:#796423;}
	.st1{fill:#796423;}
</style>
<path class="st0" d="M96.8,50.5c0,25.7-20.7,46.6-46.3,46.6C25,97.1,4.3,76.2,4.3,50.5S25,3.9,50.5,3.9
	C76.1,3.9,96.8,24.8,96.8,50.5z M94.1,50.5c0,24.2-19.5,43.9-43.5,43.9C26.5,94.4,7,74.7,7,50.5S26.5,6.6,50.5,6.6
	C74.6,6.6,94.1,26.3,94.1,50.5z"/>
<g>
	<path class="st1" d="M80.2,37.9l-7.3-15.2c-0.7-1.4-1.9-2.5-3.3-3c-1.5-0.5-3.1-0.4-4.5,0.3l-4.3,2.1c-1.1,0.5-1.6,1.7-1.2,2.8
		L39,35c-1.6,0.8-2.8,2.1-3.4,3.8c-0.4,1.3-0.4,2.7-0.1,3.9L25,47.9c-0.3-0.4-0.7-0.7-1.2-0.9c-0.6-0.2-1.3-0.2-1.9,0.1L17,49.4
		c-1.2,0.5-1.7,1.8-1.2,3c0,0.1,0.1,0.1,0.1,0.2l6.2,12.8c0.3,0.6,0.8,1,1.4,1.2l0.8,0.1c0.4,0,0.8-0.1,1.1-0.3l4.9-2.4
		c1.1-0.5,1.6-1.8,1.2-2.9l4.3-2.1c0.3,1.5,1,2.9,2,4l-8.7,11.1l3.8,3l9-11.5c1.6,0.5,3.3,0.5,4.8,0l9,11.5l3.8-3l-8.7-11.1
		c1.4-1.6,2.2-3.6,2.1-5.7c0-0.7-0.1-1.3-0.2-2l17.4-8.4c0.3,0.4,0.8,0.7,1.2,0.9l0.8,0.1c0.4,0,0.7-0.1,1-0.2l4.3-2.1l0,0
		c1.4-0.7,2.5-1.9,3-3.4C81,41,80.9,39.3,80.2,37.9z M40.2,40.4c0.1-0.5,0.4-0.8,0.8-1l20.6-9.9L68,42.7l-17.7,8.6
		c-1.6-1.6-3.8-2.5-6.1-2.5h-0.6l-3.5-7.1C40,41.3,40,40.8,40.2,40.4z M36.6,53.4l-7.2,3.5l-2.3-4.7l10.4-5.1l1.7,3.4
		C38.1,51.3,37.2,52.3,36.6,53.4z M25,61.4l-4.1-8.5l1.3-0.5l4.1,8.3L25,61.4z M40.4,57.5c0-2.1,1.7-3.9,3.9-3.9
		c2.1,0.3,3.6,2.2,3.3,4.4c-0.2,1.7-1.6,3.1-3.3,3.3C42.2,61.4,40.4,59.7,40.4,57.5z M75.9,40.9c-0.1,0.3-0.3,0.5-0.6,0.6l0,0
		l-2.1,1l-8.2-17l2.1-1c0.5-0.3,1.1-0.1,1.3,0.4c0,0,0,0.1,0.1,0.1l7.3,15.2C76,40.3,76,40.6,75.9,40.9z"/>
</g>
</svg>
