<?xml version="1.0" encoding="utf-8"?>
<!-- Generator: Adobe Illustrator 24.0.0, SVG Export Plug-In . SVG Version: 6.00 Build 0)  -->
<svg version="1.1" id="Layer_1" xmlns="http://www.w3.org/2000/svg" xmlns:xlink="http://www.w3.org/1999/xlink" x="0px" y="0px"
	 viewBox="0 0 101 101" style="enable-background:new 0 0 101 101;" xml:space="preserve">
<style type="text/css">
	.st0{fill-rule:evenodd;clip-rule:evenodd;fill:#796423;}
	.st1{fill:#796423;}
</style>
<path class="st0" d="M96.8,50.5c0,25.7-20.7,46.6-46.3,46.6C25,97.1,4.3,76.2,4.3,50.5S25,3.9,50.5,3.9
	C76.1,3.9,96.8,24.8,96.8,50.5z M94.1,50.5c0,24.2-19.5,43.9-43.5,43.9C26.5,94.4,7,74.7,7,50.5S26.5,6.6,50.5,6.6
	C74.6,6.6,94.1,26.3,94.1,50.5z"/>
<g>
	<path class="st1" d="M23.4,74.2l3.7,1.8l0,0c0.1,0.1,0.3,0.1,0.4,0.1H57c0.5,0,0.9-0.4,0.9-0.9c0-0.5-0.4-0.9-0.9-0.9H30.1l0.8-0.6
		c0.4,0.2,0.8,0.1,1.1-0.2c2-1.9,4.7-2.9,7.5-2.8c1.1,0,2.1,0.1,3.2,0.3c1.1,0.9,2.7,0.8,3.7-0.2l1.3-1.3l0,0l0,0l29.9-34.6l0,0
		c0.9-1.1,0.8-2.7-0.2-3.7l-8.6-8.8c-1-1-2.7-1.1-3.8-0.1L30.8,52.6l-0.1,0.1l-0.1,0.1L29.4,54c-1,1-1.1,2.6-0.2,3.7
		c0.3,1.1,1.3,6.9-2.4,10.6c-0.3,0.3-0.3,0.7-0.2,1l0,0l-3.4,3.4c-0.4,0.4-0.4,0.9,0,1.3C23.2,74.1,23.3,74.2,23.4,74.2z M30.9,57
		c0-0.2-0.1-0.3-0.2-0.4c-0.2-0.2-0.3-0.4-0.3-0.7c0-0.2,0.1-0.5,0.3-0.7l0.6-0.6L45.6,69l0,0L45,69.6c-0.4,0.4-0.9,0.4-1.3,0
		c-0.1-0.1-0.3-0.2-0.4-0.2c-1.3-0.3-2.6-0.4-3.9-0.4c-2.9-0.1-5.8,0.9-8.1,2.7L28.7,69C32.8,64.1,31,57.3,30.9,57z"/>
</g>
</svg>
