<?xml version="1.0" encoding="utf-8"?>
<!-- Generator: Adobe Illustrator 24.0.0, SVG Export Plug-In . SVG Version: 6.00 Build 0)  -->
<svg version="1.1" id="Layer_1" xmlns="http://www.w3.org/2000/svg" xmlns:xlink="http://www.w3.org/1999/xlink" x="0px" y="0px"
	 viewBox="0 0 101 101" style="enable-background:new 0 0 101 101;" xml:space="preserve">
<style type="text/css">
	.st0{fill-rule:evenodd;clip-rule:evenodd;fill:#796423;}
	.st1{fill:#796423;}
</style>
<path class="st0" d="M99.7,50.5c0,27.3-22,49.5-49.2,49.5C23.4,100,1.4,77.8,1.4,50.5S23.4,1,50.5,1C77.7,1,99.7,23.2,99.7,50.5z
	 M96.8,50.5c0,25.7-20.7,46.6-46.2,46.6C25,97.1,4.3,76.2,4.3,50.5S25,3.9,50.5,3.9C76.1,3.9,96.8,24.8,96.8,50.5z"/>
<path class="st1" d="M56.4,52.2V36.4h-6.4v20.8C52.6,56.1,54.8,54.4,56.4,52.2z"/>
<path class="st1" d="M41.3,57.8c1.1,0.2,2.1,0.4,3.2,0.4c1.1,0,2.2-0.1,3.2-0.4V46.8h-6.4V57.8z"/>
<path class="st1" d="M39,57.1V43.3h-6.4v9C34.3,54.4,36.5,56.1,39,57.1z"/>
<path class="st1" d="M76.8,71L60.9,55.1c2.4-3.3,3.9-7.4,3.9-11.8c0-11.1-9-20.3-20.3-20.3s-20.1,9.1-20.1,20.3s9,20.3,20.3,20.3
	c4.4,0,8.5-1.5,11.8-3.9l15.9,15.9L76.8,71z M28.5,43.3c0-8.8,7.2-16,16-16s16,7.2,16,16s-7.2,16-16,16S28.5,52.1,28.5,43.3z"/>
</svg>
