<?xml version="1.0" encoding="utf-8"?>
<!-- Generator: Adobe Illustrator 24.0.0, SVG Export Plug-In . SVG Version: 6.00 Build 0)  -->
<svg version="1.1" id="Layer_1" xmlns="http://www.w3.org/2000/svg" xmlns:xlink="http://www.w3.org/1999/xlink" x="0px" y="0px"
	 viewBox="0 0 101 101" style="enable-background:new 0 0 101 101;" xml:space="preserve">
<style type="text/css">
	.st0{fill-rule:evenodd;clip-rule:evenodd;fill:#796423;}
	.st1{fill:#796423;}
</style>
<path class="st0" d="M96.8,50.5c0,25.7-20.7,46.6-46.3,46.6C25,97.1,4.3,76.2,4.3,50.5S25,3.9,50.5,3.9
	C76.1,3.9,96.8,24.8,96.8,50.5z M94.1,50.5c0,24.2-19.5,43.9-43.5,43.9C26.5,94.4,7,74.7,7,50.5S26.5,6.6,50.5,6.6
	C74.6,6.6,94.1,26.3,94.1,50.5z"/>
<g>
	<g>
		<g>
			<path class="st1" d="M50.3,75c-13.5,0-24.5-11-24.5-24.5C25.8,37,36.8,26,50.3,26c13.5,0,24.5,11,24.5,24.5
				C74.7,64,63.8,75,50.3,75z M50.3,28.6c-12.1,0-21.9,9.8-21.9,21.9s9.8,21.9,21.9,21.9s21.9-9.8,21.9-21.9S62.4,28.6,50.3,28.6z"
				/>
		</g>
		<g>
			<path class="st1" d="M50.3,67.2c-9.2,0-16.7-7.5-16.7-16.7c0-0.7,0.6-1.3,1.3-1.3s1.3,0.6,1.3,1.3c0,7.8,6.4,14.2,14.2,14.2
				c5.6,0,10.7-3.3,13-8.5c0.3-0.7,1-0.9,1.7-0.7c0.7,0.3,0.9,1,0.7,1.7C63,63.3,56.9,67.2,50.3,67.2z"/>
		</g>
		<g>
			<path class="st1" d="M65.7,51.8c-0.7,0-1.3-0.6-1.3-1.3c0-7.8-6.4-14.2-14.2-14.2c-5.5,0-10.6,3.2-12.9,8.3
				c-0.3,0.6-1.1,0.9-1.7,0.6c-0.6-0.3-0.9-1.1-0.6-1.7c2.7-5.9,8.7-9.8,15.2-9.8c9.2,0,16.7,7.5,16.7,16.7
				C67,51.2,66.4,51.8,65.7,51.8z"/>
		</g>
		<g>
			<path class="st1" d="M50.3,60.8c-5.7,0-10.3-4.6-10.3-10.3s4.6-10.3,10.3-10.3s10.3,4.6,10.3,10.3S56,60.8,50.3,60.8z M50.3,42.8
				c-4.3,0-7.7,3.5-7.7,7.7s3.5,7.7,7.7,7.7s7.7-3.5,7.7-7.7S54.5,42.8,50.3,42.8z"/>
		</g>
		<g>
			<path class="st1" d="M50.3,49.2c-0.7,0-1.3-0.6-1.3-1.3v-27c0-0.7,0.6-1.3,1.3-1.3c0.7,0,1.3,0.6,1.3,1.3v27
				C51.6,48.6,51,49.2,50.3,49.2z"/>
		</g>
		<g>
			<path class="st1" d="M50.3,81.4c-0.7,0-1.3-0.6-1.3-1.3V54.4c0-0.7,0.6-1.3,1.3-1.3c0.7,0,1.3,0.6,1.3,1.3v25.7
				C51.6,80.8,51,81.4,50.3,81.4z"/>
		</g>
		<g>
			<path class="st1" d="M79.9,51.8h-27c-0.7,0-1.3-0.6-1.3-1.3c0-0.7,0.6-1.3,1.3-1.3h27c0.7,0,1.3,0.6,1.3,1.3
				C81.2,51.2,80.6,51.8,79.9,51.8z"/>
		</g>
		<g>
			<path class="st1" d="M46.4,51.8H20.7c-0.7,0-1.3-0.6-1.3-1.3c0-0.7,0.6-1.3,1.3-1.3h25.7c0.7,0,1.3,0.6,1.3,1.3
				C47.7,51.2,47.1,51.8,46.4,51.8z"/>
		</g>
	</g>
</g>
</svg>
