<?xml version="1.0" encoding="utf-8"?>
<!-- Generator: Adobe Illustrator 24.0.0, SVG Export Plug-In . SVG Version: 6.00 Build 0)  -->
<svg version="1.1" id="Layer_1" xmlns="http://www.w3.org/2000/svg" xmlns:xlink="http://www.w3.org/1999/xlink" x="0px" y="0px"
	 viewBox="0 0 101 101" style="enable-background:new 0 0 101 101;" xml:space="preserve">
<style type="text/css">
	.st0{fill-rule:evenodd;clip-rule:evenodd;fill:#796423;}
	.st1{fill:#796423;}
</style>
<path class="st0" d="M96.8,50.5c0,25.7-20.7,46.6-46.3,46.6C25,97.1,4.3,76.2,4.3,50.5S25,3.9,50.5,3.9
	C76.1,3.9,96.8,24.8,96.8,50.5z M94.1,50.5c0,24.2-19.5,43.9-43.5,43.9C26.5,94.4,7,74.7,7,50.5S26.5,6.6,50.5,6.6
	C74.6,6.6,94.1,26.3,94.1,50.5z"/>
<path class="st1" d="M65.3,69.9c0,0-0.6,2.9,1.7,5.3c5.4,5.4,11.4,0,11.4,0s-1.7,0.1-2.6-0.9c-0.9-0.9-0.2-3.7-2.2-5.7
	c-2.1-2-5.8-1.4-5.8-1.4L65.3,69.9z"/>
<path class="st1" d="M46.9,43.5c-9.8-8.8-23-20.1-24.3-18.8C21.4,26,32.7,39.2,41.5,48.9L46.9,43.5z"/>
<path class="st1" d="M57.8,53.6l-6.2,6.2c3.6,3.6,10.4,9.9,12.3,7.9l0.9-0.9l0.9-0.9C67.7,64,61.4,57.3,57.8,53.6z"/>
<rect x="26" y="46.9" transform="matrix(0.7071 -0.7071 0.7071 0.7071 -22.3384 49.8788)" class="st1" width="46" height="9.9"/>
<polygon class="st1" points="28.8,75.7 25.3,72.1 27.5,66.4 34.6,73.4 "/>
<polygon class="st1" points="23.1,77.8 24,74.4 26.6,77 "/>
<rect x="66.7" y="28" transform="matrix(0.7071 -0.7071 0.7071 0.7071 -3.4317 57.7071)" class="st1" width="2.5" height="9.9"/>
<path class="st1" d="M76.8,26L75,24.2c-1.4-1.4-3.8-1.4-5.3,0l-2.7,2.6l7,7l2.6-2.6C78.2,29.8,78.2,27.4,76.8,26z"/>
</svg>
