<?xml version="1.0" encoding="utf-8"?>
<!-- Generator: Adobe Illustrator 23.0.2, SVG Export Plug-In . SVG Version: 6.00 Build 0)  -->
<svg version="1.1" id="Layer_1" xmlns="http://www.w3.org/2000/svg" xmlns:xlink="http://www.w3.org/1999/xlink" x="0px" y="0px"
	 viewBox="0 0 101 101" style="enable-background:new 0 0 101 101;" xml:space="preserve">
<style type="text/css">
	.st0{fill-rule:evenodd;clip-rule:evenodd;fill:#796423;}
	.st1{fill:#796423;}
</style>
<path class="st0" d="M99.7,50.5c0,27.3-22,49.5-49.2,49.5C23.4,100,1.4,77.8,1.4,50.5C1.4,23.2,23.4,1,50.5,1
	C77.7,1,99.7,23.2,99.7,50.5z M96.8,50.5c0,25.7-20.7,46.6-46.2,46.6C25,97.1,4.3,76.2,4.3,50.5C4.3,24.8,25,3.9,50.5,3.9
	C76.1,3.9,96.8,24.8,96.8,50.5z"/>
<g>
	<path class="st1" d="M24.9,58.5h8.6c1.6,0,2.9,1.2,2.9,2.7v8c0,1.5-1.3,2.7-2.9,2.7h-8.6c-1.6,0-2.9-1.2-2.9-2.7v-8
		C22,59.7,23.3,58.5,24.9,58.5z"/>
	<path class="st1" d="M48.4,51.8H31.3v4H27V51c0-1.8,1.5-3.2,3.4-3.2h18v-5.3h-3.6c-1.6,0-2.9-1.2-2.9-2.7v-8c0-1.5,1.3-2.7,2.9-2.7
		h11.4c1.6,0,2.9,1.2,2.9,2.7v8c0,1.5-1.3,2.7-2.9,2.7h-3.6v5.3h18c1.9,0,3.4,1.4,3.4,3.2v4.8h-4.3v-4H52.7v4h-4.3V51.8z"/>
	<path class="st1" d="M46.2,58.5h8.6c1.6,0,2.9,1.2,2.9,2.7v8c0,1.5-1.3,2.7-2.9,2.7h-8.6c-1.6,0-2.9-1.2-2.9-2.7v-8
		C43.4,59.7,44.7,58.5,46.2,58.5z"/>
	<path class="st1" d="M67.6,58.5h8.6c1.6,0,2.9,1.2,2.9,2.7v8c0,1.5-1.3,2.7-2.9,2.7h-8.6c-1.6,0-2.9-1.2-2.9-2.7v-8
		C64.8,59.7,66,58.5,67.6,58.5z"/>
</g>
</svg>
