<svg width="101" height="102" viewBox="0 0 101 102" fill="none" xmlns="http://www.w3.org/2000/svg">
<path d="M24.8164 54.9405H33.3676C34.9415 54.9405 36.218 56.1336 36.218 57.6047V65.5972C36.218 67.0683 34.9415 68.2613 33.3676 68.2613H24.8164C23.2424 68.2613 21.966 67.0683 21.966 65.5972V57.6047C21.966 56.1336 23.2424 54.9405 24.8164 54.9405Z" fill="#796423"/>
<path d="M48.3322 48.2801H31.2298V52.2764H26.9542V47.4817C26.9542 45.7184 28.4889 44.2839 30.3755 44.2839H48.3322V38.9556H44.7692C43.1952 38.9556 41.9188 37.7625 41.9188 36.2914V28.2989C41.9188 26.8278 43.1952 25.6348 44.7692 25.6348H56.1708C57.7448 25.6348 59.0212 26.8278 59.0212 28.2989V36.2914C59.0212 37.7625 57.7448 38.9556 56.1708 38.9556H52.6078V44.2839H70.5645C72.4511 44.2839 73.9858 45.7192 73.9858 47.4817V52.2764H69.7102V48.2801H52.6078V52.2764H48.3322V48.2801Z" fill="#796423"/>
<path d="M46.1944 54.9405H54.7456C56.3196 54.9405 57.596 56.1336 57.596 57.6047V65.5972C57.596 67.0683 56.3196 68.2613 54.7456 68.2613H46.1944C44.6204 68.2613 43.344 67.0683 43.344 65.5972V57.6047C43.344 56.1336 44.6204 54.9405 46.1944 54.9405Z" fill="#796423"/>
<path d="M67.5724 54.9405H76.1236C77.6976 54.9405 78.974 56.1336 78.974 57.6047V65.5972C78.974 67.0683 77.6976 68.2613 76.1236 68.2613H67.5724C65.9985 68.2613 64.722 67.0683 64.722 65.5972V57.6047C64.722 56.1336 65.9985 54.9405 67.5724 54.9405Z" fill="#796423"/>
<path fill-rule="evenodd" clip-rule="evenodd" d="M101 50.7256C101 78.5132 78.4737 101.04 50.6861 101.04C22.8984 101.04 0.372101 78.5132 0.372101 50.7256C0.372101 22.9379 22.8984 0.411621 50.6861 0.411621C78.4737 0.411621 101 22.9379 101 50.7256ZM98.0111 50.7256C98.0111 76.8624 76.8229 98.0506 50.6861 98.0506C24.5492 98.0506 3.36105 76.8624 3.36105 50.7256C3.36105 24.5887 24.5492 3.40057 50.6861 3.40057C76.8229 3.40057 98.0111 24.5887 98.0111 50.7256Z" fill="#796423"/>
</svg>
