<svg width="101" height="100" viewBox="0 0 101 100" fill="none" xmlns="http://www.w3.org/2000/svg">
<path d="M100.5 50.2117C100.5 77.6308 78.0977 99.9233 50.5 99.9233C22.9219 99.9233 0.5 77.6502 0.5 50.2117C0.5 22.7732 22.9023 0.5 50.5 0.5C78.0977 0.5 100.5 22.7732 100.5 50.2117ZM94.25 50.2117C94.25 26.2879 74.6602 6.71396 50.5 6.71396C26.3789 6.71396 6.75 26.2297 6.75 50.2117C6.75 74.1937 26.3789 93.7094 50.5 93.7094C74.6211 93.7094 94.25 74.1937 94.25 50.2117ZM31.9258 24.6956L48.8984 31.8999L41.6523 48.7747L24.6797 41.5704L31.9258 24.6956ZM53.4102 57.5325L62.5117 75.786H59.6602L49.8945 56.3674L40.3438 75.786H37.6094L47.5898 55.0275L43.2344 53.2021L44.4062 50.4835L57.8047 56.1343L56.6328 58.9112L53.4102 57.5325ZM51.1055 34.9486L64.5039 40.6577L58.7617 53.9206L45.4219 48.2698L51.1055 34.9486ZM66.7891 43.2792L77.4531 47.7649L72.8828 58.3092L62.2773 53.8235L66.7891 43.2792Z" fill="#796423"/>
</svg>
