<?xml version="1.0" encoding="utf-8"?>
<!-- Generator: Adobe Illustrator 23.0.2, SVG Export Plug-In . SVG Version: 6.00 Build 0)  -->
<svg version="1.1" id="Layer_1" xmlns="http://www.w3.org/2000/svg" xmlns:xlink="http://www.w3.org/1999/xlink" x="0px" y="0px"
	 viewBox="0 0 101 102" style="enable-background:new 0 0 101 102;" xml:space="preserve">
<style type="text/css">
	.st0{fill-rule:evenodd;clip-rule:evenodd;fill:#796423;}
	.st1{fill:#796423;}
</style>
<path class="st0" d="M101,50.7c0,27.8-22.5,50.3-50.3,50.3C22.9,101,0.4,78.5,0.4,50.7c0-27.8,22.5-50.3,50.3-50.3
	C78.5,0.4,101,22.9,101,50.7z M98,50.7c0,26.1-21.2,47.3-47.3,47.3c-26.1,0-47.3-21.2-47.3-47.3c0-26.1,21.2-47.3,47.3-47.3
	C76.8,3.4,98,24.6,98,50.7z"/>
<polygon class="st1" points="31.9,24.7 48.9,31.9 41.7,48.8 24.7,41.6 "/>
<polygon class="st1" points="53.4,57.5 62.5,75.8 59.7,75.8 49.9,56.4 40.3,75.8 37.6,75.8 47.6,55 43.2,53.2 44.4,50.5 57.8,56.1 
	56.6,58.9 "/>
<polygon class="st1" points="51.1,34.9 64.5,40.7 58.8,53.9 45.4,48.3 "/>
<polygon class="st1" points="66.8,43.3 77.5,47.8 72.9,58.3 62.3,53.8 "/>
</svg>
