<?xml version="1.0" encoding="utf-8"?>
<!-- Generator: Adobe Illustrator 23.0.2, SVG Export Plug-In . SVG Version: 6.00 Build 0)  -->
<svg version="1.1" id="Layer_1" xmlns="http://www.w3.org/2000/svg" xmlns:xlink="http://www.w3.org/1999/xlink" x="0px" y="0px"
	 viewBox="0 0 101 101" style="enable-background:new 0 0 101 101;" xml:space="preserve">
<style type="text/css">
	.st0{fill-rule:evenodd;clip-rule:evenodd;fill:#796423;}
	.st1{fill:#796423;}
</style>
<path class="st0" d="M99.7,50.5c0,27.3-22,49.5-49.2,49.5C23.4,100,1.4,77.8,1.4,50.5C1.4,23.2,23.4,1,50.5,1
	C77.7,1,99.7,23.2,99.7,50.5z M96.8,50.5c0,25.7-20.7,46.6-46.2,46.6C25,97.1,4.3,76.2,4.3,50.5C4.3,24.8,25,3.9,50.5,3.9
	C76.1,3.9,96.8,24.8,96.8,50.5z"/>
<polygon class="st1" points="31.3,25.8 48.3,33 41.1,49.9 24.1,42.7 "/>
<polygon class="st1" points="52.8,58.6 61.9,76.9 59.1,76.9 49.3,57.5 39.7,76.9 37,76.9 47,56.1 42.6,54.3 43.8,51.6 57.2,57.2 
	56,60 "/>
<polygon class="st1" points="50.5,36 63.9,41.8 58.2,55 44.8,49.4 "/>
<polygon class="st1" points="66.2,44.4 76.9,48.9 72.3,59.4 61.7,54.9 "/>
</svg>
