<svg width="101" height="101" viewBox="0 0 101 101" fill="none" xmlns="http://www.w3.org/2000/svg">
<path d="M69.7699 34.5009L73.7886 38.4682C74.3685 39.0406 74.3685 39.9674 73.7886 40.5407L69.7699 44.5071C69.2123 45.0566 68.4579 45.3653 67.6701 45.3653H31.9124C30.683 45.3653 29.6855 44.3808 29.6855 43.1673V35.8407C29.6855 34.6273 30.683 33.6427 31.9124 33.6427H47.5008V32.1774C47.5008 31.3678 48.1652 30.7121 48.9854 30.7121H51.9546C52.7749 30.7121 53.4392 31.3678 53.4392 32.1774V33.6427H67.6701C68.4579 33.6427 69.2132 33.9514 69.7699 34.5009Z" fill="#796423"/>
<path d="M48.9854 77.6022C48.1652 77.6022 47.5008 76.9465 47.5008 76.1369V65.8797H53.4392V76.1369C53.4392 76.9465 52.7749 77.6022 51.9546 77.6022H48.9854Z" fill="#796423"/>
<path d="M53.4392 51.2265H69.0276C70.257 51.2265 71.2545 52.211 71.2545 53.4245V60.7511C71.2545 61.9645 70.257 62.9491 69.0276 62.9491H33.2699C32.4821 62.9491 31.7268 62.6404 31.1701 62.0909L27.1515 58.1245C26.5715 57.5521 26.5715 56.6244 27.1515 56.052L31.1701 52.0847C31.7278 51.5352 32.4821 51.2265 33.2699 51.2265H47.5008V48.2959H53.4392V51.2265Z" fill="#796423"/>
<path fill-rule="evenodd" clip-rule="evenodd" d="M101 50.3139C101 78.1016 78.4737 100.628 50.6861 100.628C22.8984 100.628 0.372101 78.1016 0.372101 50.3139C0.372101 22.5263 22.8984 0 50.6861 0C78.4737 0 101 22.5263 101 50.3139ZM98.0111 50.3139C98.0111 76.4508 76.8229 97.639 50.6861 97.639C24.5492 97.639 3.36105 76.4508 3.36105 50.3139C3.36105 24.1771 24.5492 2.98895 50.6861 2.98895C76.8229 2.98895 98.0111 24.1771 98.0111 50.3139Z" fill="#796423"/>
</svg>
