<?xml version="1.0" encoding="utf-8"?>
<!-- Generator: Adobe Illustrator 23.0.2, SVG Export Plug-In . SVG Version: 6.00 Build 0)  -->
<svg version="1.1" id="Layer_1" xmlns="http://www.w3.org/2000/svg" xmlns:xlink="http://www.w3.org/1999/xlink" x="0px" y="0px"
	 viewBox="0 0 101 101" style="enable-background:new 0 0 101 101;" xml:space="preserve">
<style type="text/css">
	.st0{fill:#796423;}
	.st1{fill-rule:evenodd;clip-rule:evenodd;fill:#796423;}
</style>
<path class="st0" d="M69.2,34.9l3.9,3.9c0.6,0.6,0.6,1.5,0,2l-3.9,3.9c-0.5,0.5-1.3,0.8-2.1,0.8H32.2c-1.2,0-2.2-1-2.2-2.2v-7.2
	c0-1.2,1-2.2,2.2-2.2h15.2v-1.4c0-0.8,0.6-1.4,1.5-1.4h2.9c0.8,0,1.5,0.6,1.5,1.4v1.4h13.9C67.9,34.1,68.6,34.4,69.2,34.9z"/>
<path class="st0" d="M48.9,77.3c-0.8,0-1.5-0.6-1.5-1.4V65.8h5.8v10.1c0,0.8-0.6,1.4-1.5,1.4H48.9z"/>
<path class="st0" d="M53.2,51.4h15.2c1.2,0,2.2,1,2.2,2.2v7.2c0,1.2-1,2.2-2.2,2.2H33.5c-0.8,0-1.5-0.3-2.1-0.8l-3.9-3.9
	c-0.6-0.6-0.6-1.5,0-2l3.9-3.9c0.5-0.5,1.3-0.8,2.1-0.8h13.9v-2.9h5.8V51.4z"/>
<path class="st1" d="M99.7,50.5c0,27.3-22,49.5-49.2,49.5C23.4,100,1.4,77.8,1.4,50.5C1.4,23.2,23.4,1,50.5,1
	C77.7,1,99.7,23.2,99.7,50.5z M96.8,50.5c0,25.7-20.7,46.6-46.2,46.6C25,97.1,4.3,76.2,4.3,50.5C4.3,24.8,25,3.9,50.5,3.9
	C76.1,3.9,96.8,24.8,96.8,50.5z"/>
</svg>
