<?xml version="1.0" encoding="utf-8"?>
<!-- Generator: Adobe Illustrator 23.0.2, SVG Export Plug-In . SVG Version: 6.00 Build 0)  -->
<svg version="1.1" id="Layer_1" xmlns="http://www.w3.org/2000/svg" xmlns:xlink="http://www.w3.org/1999/xlink" x="0px" y="0px"
	 viewBox="0 0 552.3 500.9" style="enable-background:new 0 0 552.3 500.9;" xml:space="preserve">
<style type="text/css">
	.st0{fill:none;stroke:#000000;stroke-miterlimit:10;}
	.st1{fill:#FFFFFF;stroke:#000000;stroke-miterlimit:10;}
	.st2{fill:#231F20;}
	.st3{font-family:'Helvetica';}
	.st4{font-size:7.3596px;}
</style>
<g>
	<line class="st0" x1="166.9" y1="374.5" x2="166.9" y2="450.7"/>
	<line class="st0" x1="60.9" y1="378.2" x2="174.2" y2="378.2"/>
	<line class="st0" x1="60.9" y1="451.6" x2="174.2" y2="451.6"/>
	<line class="st0" x1="44.3" y1="127.6" x2="44.3" y2="447.9"/>
	<path class="st1" d="M66.9,127.6H22c-7.5,0-13.7-6.2-13.7-13.7v0c0-7.5,6.2-13.7,13.7-13.7h44.9c7.5,0,13.7,6.2,13.7,13.7v0
		C80.6,121.5,74.5,127.6,66.9,127.6z"/>
	<path class="st1" d="M66.9,465.4H22c-7.5,0-13.7-6.2-13.7-13.7v0c0-7.5,6.2-13.7,13.7-13.7h44.9c7.5,0,13.7,6.2,13.7,13.7v0
		C80.6,459.2,74.5,465.4,66.9,465.4z"/>
	<rect x="7" y="165.9" class="st1" width="76.2" height="26.7"/>
	<rect x="7" y="231" class="st1" width="76.2" height="26.7"/>
	<rect x="7" y="296.8" class="st1" width="76.2" height="26.7"/>
	<rect x="130.8" y="363.5" class="st1" width="76.2" height="26.7"/>
	<rect x="130.8" y="435.2" class="st1" width="76.2" height="26.7"/>
	<polygon class="st1" points="44.3,355.7 81.4,378.2 44.2,400.4 7.8,377.9 	"/>
	<text transform="matrix(1 0 0 1 24.5337 116.9007)" class="st2 st3 st4">Dashboard</text>
	<text transform="matrix(1 0 0 1 37.2446 182.3421)" class="st2 st3 st4">New</text>
	<text transform="matrix(1 0 0 1 34.3003 247.2962)" class="st2 st3 st4">Folder</text>
	<text transform="matrix(1 0 0 1 23.9976 313.2279)" class="st2 st3 st4">Name folder</text>
	<text transform="matrix(1 0 0 1 25.4692 455.1078)" class="st2 st3 st4">Dashboard</text>
	<text transform="matrix(1 0 0 1 141.9106 451.4261)" class="st2 st3 st4">Set permissions</text>
	<text transform="matrix(1 0 0 1 140.7554 374.7513)"><tspan x="0" y="0" class="st2 st3 st4">Invite others and </tspan><tspan x="13.3" y="8.8" class="st2 st3 st4">message</tspan></text>
	<text transform="matrix(1 0 0 1 23.5444 378.1019)"><tspan x="0" y="0" class="st2 st3 st4">Collaboration</tspan><tspan x="10.4" y="8.8" class="st2 st3 st4">folder?</tspan></text>
</g>
<g>
	<line class="st0" x1="504.9" y1="130.3" x2="504.9" y2="447"/>
	<path class="st1" d="M527.4,141.6h-44.9c-7.5,0-13.7-6.2-13.7-13.7v0c0-7.5,6.2-13.7,13.7-13.7h44.9c7.5,0,13.7,6.2,13.7,13.7v0
		C541,135.4,534.9,141.6,527.4,141.6z"/>
	<path class="st1" d="M527.4,461h-44.9c-7.5,0-13.7-6.2-13.7-13.7v0c0-7.5,6.2-13.7,13.7-13.7h44.9c7.5,0,13.7,6.2,13.7,13.7v0
		C541,454.8,534.9,461,527.4,461z"/>
	<rect x="466.8" y="195.6" class="st1" width="76.2" height="26.7"/>
	<rect x="466.8" y="275.4" class="st1" width="76.2" height="26.7"/>
	<rect x="466.8" y="354.9" class="st1" width="76.2" height="26.7"/>
	<text transform="matrix(1 0 0 1 487.249 130.724)" class="st2 st3 st4">Dashboard</text>
	<text transform="matrix(1 0 0 1 487.249 450.1244)" class="st2 st3 st4">Dashboard</text>
	<text transform="matrix(1 0 0 1 487.249 212.0404)" class="st2 st3 st4">Select file</text>
	<text transform="matrix(1 0 0 1 478.418 291.1566)" class="st2 st3 st4">Select download</text>
	<text transform="matrix(1 0 0 1 474.002 371.7396)" class="st2 st3 st4">Choose destination</text>
</g>
<g>
	<line class="st0" x1="417.8" y1="100" x2="167.9" y2="100"/>
	<line class="st0" x1="417.7" y1="316.5" x2="167.7" y2="316.5"/>
	<line class="st0" x1="399.8" y1="104.7" x2="399.8" y2="317.4"/>
	<line class="st0" x1="167.8" y1="104.7" x2="167.8" y2="316.6"/>
	<line class="st0" x1="282.5" y1="24.9" x2="282.5" y2="101.1"/>
	<path class="st1" d="M305.8,41.2h-44.9c-7.5,0-13.7-6.2-13.7-13.7v0c0-7.5,6.2-13.7,13.7-13.7h44.9c7.5,0,13.7,6.2,13.7,13.7v0
		C319.4,35.1,313.3,41.2,305.8,41.2z"/>
	<path class="st1" d="M305.8,330.6h-44.9c-7.5,0-13.7-6.2-13.7-13.7v0c0-7.5,6.2-13.7,13.7-13.7h44.9c7.5,0,13.7,6.2,13.7,13.7v0
		C319.4,324.5,313.3,330.6,305.8,330.6z"/>
	<rect x="364" y="86.9" class="st1" width="76.2" height="26.7"/>
	<rect x="131.8" y="86.9" class="st1" width="76.2" height="26.7"/>
	<rect x="131.8" y="163.9" class="st1" width="76.2" height="26.7"/>
	<rect x="131.8" y="229.8" class="st1" width="76.2" height="26.7"/>
	<rect x="362.5" y="163.9" class="st1" width="76.2" height="26.7"/>
	<rect x="362.5" y="229.8" class="st1" width="76.2" height="26.7"/>
	<rect x="362.5" y="303.1" class="st1" width="76.2" height="26.7"/>
	<polygon class="st1" points="282.4,77.3 319.5,99.8 282.2,122 245.8,99.6 	"/>
	<text transform="matrix(1 0 0 1 266.0132 30.3607)" class="st2 st3 st4">Homepage</text>
	<text transform="matrix(1 0 0 1 259.3901 101.1771)" class="st2 st3 st4">Login method</text>
	<text transform="matrix(1 0 0 1 137.2476 101.1771)" class="st2 st3 st4">Sign in with Google</text>
	<text transform="matrix(1 0 0 1 136.3721 240.8529)"><tspan x="0" y="0" class="st2 st3 st4">Create account with</tspan><tspan x="-2.9" y="8.8" class="st2 st3 st4">credentials and agree</tspan></text>
	<text transform="matrix(1 0 0 1 141.8955 175.4105)"><tspan x="0" y="0" class="st2 st3 st4">Confirm aacount</tspan><tspan x="15.5" y="8.8" class="st2 st3 st4">access</tspan></text>
	<text transform="matrix(1 0 0 1 265.2769 319.9711)" class="st2 st3 st4">Dashboard</text>
	<text transform="matrix(1 0 0 1 387.8809 319.9711)" class="st2 st3 st4">Sign in</text>
	<text transform="matrix(1 0 0 1 365.2832 246.225)" class="st2 st3 st4">Verify email with code</text>
	<text transform="matrix(1 0 0 1 371.0059 179.806)" class="st2 st3 st4">Security questions</text>
	<text transform="matrix(1 0 0 1 365 98.2464)"><tspan x="0" y="0" class="st2 st3 st4">Name/Email password</tspan><tspan x="5.9" y="8.8" class="st2 st3 st4">and agree to terms</tspan></text>
</g>
</svg>
