<?xml version="1.0" encoding="utf-8"?>
<!-- Generator: Adobe Illustrator 23.0.2, SVG Export Plug-In . SVG Version: 6.00 Build 0)  -->
<svg version="1.1" id="Layer_1" xmlns="http://www.w3.org/2000/svg" xmlns:xlink="http://www.w3.org/1999/xlink" x="0px" y="0px"
	 viewBox="0 0 101 101" style="enable-background:new 0 0 101 101;" xml:space="preserve">
<style type="text/css">
	.st0{fill-rule:evenodd;clip-rule:evenodd;fill:#796423;}
	.st1{fill:#796423;}
</style>
<path class="st0" d="M99.7,50.5c0,27.3-22,49.5-49.2,49.5C23.4,100,1.4,77.8,1.4,50.5C1.4,23.2,23.4,1,50.5,1
	C77.7,1,99.7,23.2,99.7,50.5z M96.8,50.5c0,25.7-20.7,46.6-46.2,46.6C25,97.1,4.3,76.2,4.3,50.5C4.3,24.8,25,3.9,50.5,3.9
	C76.1,3.9,96.8,24.8,96.8,50.5z"/>
<path class="st1" d="M45.2,24.7c-10.3,2-18.5,10.2-20.6,20.4c-3.8,19.2,13.6,33.5,26.7,31.5c4.3-0.7,6.3-5.6,4.4-9.4
	c-2.4-4.7,1-10.1,6.3-10.1h8.2c3.7,0,6.7-3,6.7-6.7C76.9,34.2,62.1,21.4,45.2,24.7z M34,57.1c-1.8,0-3.3-1.5-3.3-3.3
	c0-1.8,1.5-3.3,3.3-3.3c1.8,0,3.3,1.5,3.3,3.3C37.3,55.6,35.8,57.1,34,57.1z M37.3,43.9c-1.8,0-3.3-1.5-3.3-3.3s1.5-3.3,3.3-3.3
	s3.3,1.5,3.3,3.3S39.1,43.9,37.3,43.9z M50.5,37.4c-1.8,0-3.3-1.5-3.3-3.3c0-1.8,1.5-3.3,3.3-3.3c1.8,0,3.3,1.5,3.3,3.3
	C53.8,35.9,52.3,37.4,50.5,37.4z M63.7,43.9c-1.8,0-3.3-1.5-3.3-3.3s1.5-3.3,3.3-3.3s3.3,1.5,3.3,3.3S65.6,43.9,63.7,43.9z"/>
</svg>
