<svg width="101" height="102" viewBox="0 0 101 102" fill="none" xmlns="http://www.w3.org/2000/svg">
<path fill-rule="evenodd" clip-rule="evenodd" d="M50.5 101.037C78.3904 101.037 101 78.4275 101 50.5371C101 22.6467 78.3904 0.0371094 50.5 0.0371094C22.6096 0.0371094 0 22.6467 0 50.5371C0 78.4275 22.6096 101.037 50.5 101.037ZM50.5 98.0371C76.7335 98.0371 98 76.7706 98 50.5371C98 24.3036 76.7335 3.03711 50.5 3.03711C24.2665 3.03711 3 24.3036 3 50.5371C3 76.7706 24.2665 98.0371 50.5 98.0371Z" fill="#796423"/>
<path d="M44.2754 23.9562C32.3093 26.2782 22.6665 35.8416 20.307 47.703C15.8528 70.0854 36.1615 86.7705 51.4623 84.4125C56.4222 83.6465 58.8539 77.8773 56.5787 73.4368C53.7978 68.0028 57.7705 61.6591 63.91 61.6591H73.5046C77.8144 61.6591 81.3055 58.1162 81.3175 53.8432C81.2573 34.9798 63.9943 20.138 44.2754 23.9562ZM31.2378 61.6591C29.1071 61.6591 27.3856 59.9475 27.3856 57.829C27.3856 55.7104 29.1071 53.9988 31.2378 53.9988C33.3686 53.9988 35.0901 55.7104 35.0901 57.829C35.0901 59.9475 33.3686 61.6591 31.2378 61.6591ZM35.0901 46.3385C32.9593 46.3385 31.2378 44.6269 31.2378 42.5084C31.2378 40.3899 32.9593 38.6783 35.0901 38.6783C37.2209 38.6783 38.9424 40.3899 38.9424 42.5084C38.9424 44.6269 37.2209 46.3385 35.0901 46.3385ZM50.4993 38.6783C48.3685 38.6783 46.647 36.9667 46.647 34.8481C46.647 32.7296 48.3685 31.018 50.4993 31.018C52.6301 31.018 54.3515 32.7296 54.3515 34.8481C54.3515 36.9667 52.6301 38.6783 50.4993 38.6783ZM65.9084 46.3385C63.7776 46.3385 62.0561 44.6269 62.0561 42.5084C62.0561 40.3899 63.7776 38.6783 65.9084 38.6783C68.0392 38.6783 69.7607 40.3899 69.7607 42.5084C69.7607 44.6269 68.0392 46.3385 65.9084 46.3385Z" fill="#796423"/>
</svg>
